<svg width="29" height="29" viewBox="0 0 29 29" fill="none" xmlns="http://www.w3.org/2000/svg">
<path d="M0.00351173 0.0388596C0.010724 0.0757151 0.109292 0.554836 0.219881 1.10767C0.33047 1.65766 0.42423 2.11127 0.429038 2.1141C0.433847 2.11977 0.647812 2.20766 0.905051 2.31256C1.16229 2.41745 1.38587 2.51951 1.4003 2.53652C1.41472 2.55637 1.45559 2.67261 1.49165 2.79735C1.6383 3.29915 1.91718 3.86332 2.19125 4.22053C2.40521 4.5012 2.73458 4.73935 3.08077 4.86409C3.09519 4.86976 3.2178 5.24965 3.35484 5.70893C3.48947 6.1682 3.60967 6.5566 3.61929 6.57361C3.6265 6.58779 4.3309 6.63031 5.27572 6.67284C6.17966 6.71536 6.92493 6.75505 6.92974 6.76072C6.94417 6.7749 6.99465 8.51277 6.98263 8.52411C6.97782 8.52978 6.84079 8.50143 6.67491 8.46741C6.50902 8.43056 6.10513 8.35401 5.77337 8.29731C5.444 8.24061 5.15311 8.18958 5.13147 8.18108C5.093 8.1669 5.0882 8.19242 5.0882 8.4504V8.73674H4.46072H3.83325L3.84768 9.70632C3.85729 10.2421 3.86931 10.7695 3.87653 10.88L3.88855 11.0813L5.33582 11.104C6.13158 11.1153 6.7903 11.1323 6.79751 11.1409C6.80713 11.1522 6.61961 15.1468 6.38401 20.0173C6.146 24.8879 5.95848 28.8797 5.96569 28.891C5.98493 28.9137 8.16545 28.959 8.18468 28.9392C8.18949 28.9307 8.30249 24.9333 8.43471 20.057C8.56453 15.1836 8.67272 11.189 8.67753 11.1862C8.68714 11.1749 20.2196 11.1295 20.2341 11.138C20.2389 11.1437 20.3495 15.1638 20.4817 20.0712C20.6115 24.9758 20.7221 28.9959 20.7245 28.9987C20.7389 29.0157 23.107 28.857 23.1214 28.84C23.131 28.8315 22.9339 24.8369 22.6838 19.9635C22.4026 14.4408 22.2391 11.1012 22.2535 11.0898C22.2655 11.0813 22.8738 11.0161 23.6046 10.9509C24.3355 10.8829 24.9389 10.8233 24.9413 10.8177C24.9557 10.8063 24.91 8.77076 24.898 8.75375C24.8908 8.74808 24.7057 8.73391 24.4893 8.72257C24.2706 8.71406 23.9821 8.69989 23.8498 8.69138L23.607 8.67437L23.5902 8.30298C23.5806 8.09602 23.5686 7.92309 23.5613 7.91742C23.5397 7.88907 23.2632 7.98546 23.0252 8.10453C22.5853 8.32283 22.3112 8.44757 22.2247 8.46741L22.1429 8.48726L22.0876 7.78134C22.0588 7.39577 22.0275 7.02722 22.0203 6.96485L22.0083 6.84861L23.5421 6.7267C24.3884 6.6615 25.0904 6.60196 25.1024 6.59629C25.1168 6.59346 25.2322 6.31562 25.362 5.98392L25.5976 5.37723L25.8645 5.20713C26.3862 4.87543 26.7564 4.56357 27.0858 4.17517C27.2516 3.97956 27.4656 3.69605 27.5594 3.5458L27.7301 3.27647L28.3046 2.87389L28.8792 2.47132L28.9441 1.31746C28.9778 0.682412 29.0042 0.160766 28.9994 0.155096C28.997 0.149426 28.8744 0.211797 28.7302 0.291178C26.778 1.37416 23.946 2.28988 21.0875 2.769C20.448 2.87389 20.3495 2.8909 19.7749 2.96461C18.0776 3.18858 16.688 3.27647 14.7647 3.27647C13.1516 3.27647 12.2981 3.23678 10.834 3.09219C7.47307 2.76616 4.23714 1.96668 1.66234 0.826999C1.17431 0.611536 0.472312 0.259992 0.18382 0.0898902C0.00110763 -0.017841 -0.0085088 -0.0206761 0.00351173 0.0388596ZM13.3824 7.71897V8.74241L12.9088 8.72257C11.4062 8.6687 10.9109 8.65169 10.6249 8.65169C10.4518 8.65169 10.2931 8.64319 10.2714 8.63468C10.2402 8.62051 10.233 8.57231 10.233 8.41355C10.233 8.30015 10.2282 8.20092 10.221 8.19242C10.2113 8.18108 9.60791 8.2803 8.88187 8.41071L8.76648 8.43056V8.29448C8.76648 8.21793 8.78331 7.86922 8.80254 7.51768C8.82177 7.16613 8.8386 6.83727 8.8386 6.78624V6.69552H11.1105H13.3824V7.71897ZM20.1235 7.28237C20.1307 7.6084 20.1451 8.04216 20.1523 8.25195L20.1643 8.62901L20.097 8.612C20.061 8.60066 19.7076 8.49009 19.3133 8.36252C18.919 8.23778 18.5897 8.14139 18.5824 8.14989C18.5704 8.1669 18.6137 8.58649 18.6377 8.68571C18.6498 8.73391 18.568 8.73674 17.1328 8.73674H15.6158L15.6302 8.27463C15.6374 8.02231 15.6494 7.56304 15.6566 7.25402L15.6711 6.69552H17.8901H20.109L20.1235 7.28237Z" fill="black" fill-opacity="0.75"/>
</svg>
