<svg width="14" height="28" viewBox="0 0 14 28" fill="none" xmlns="http://www.w3.org/2000/svg">
<path d="M1.9867 27.9964C1.52332 27.9973 1.07425 27.8349 0.717447 27.5374C0.51663 27.3699 0.350631 27.1641 0.228957 26.932C0.107283 26.6998 0.032325 26.4457 0.00837595 26.1844C-0.0155731 25.923 0.011958 25.6594 0.0893915 25.4088C0.166825 25.1581 0.292638 24.9253 0.459629 24.7236L9.34443 14.0274L0.776945 3.31113C0.612207 3.10701 0.489185 2.87214 0.41495 2.62002C0.340715 2.3679 0.31673 2.1035 0.344374 1.84203C0.372019 1.58055 0.450746 1.32715 0.576033 1.09639C0.701321 0.865624 0.870697 0.662052 1.07443 0.497372C1.27962 0.315702 1.51992 0.17867 1.78024 0.0948782C2.04056 0.0110859 2.31529 -0.0176577 2.58717 0.0104497C2.85906 0.0385572 3.12223 0.12291 3.36018 0.258213C3.59813 0.393517 3.80572 0.57685 3.96992 0.796708L13.5488 12.7702C13.8405 13.1272 14 13.5751 14 14.0373C14 14.4996 13.8405 14.9475 13.5488 15.3045L3.63277 27.278C3.43382 27.5195 3.18109 27.7104 2.8951 27.8352C2.6091 27.96 2.29788 28.0153 1.9867 27.9964Z" fill="white"/>
</svg>
