<svg width="22" height="23" viewBox="0 0 22 23" fill="none" xmlns="http://www.w3.org/2000/svg">
<path d="M20.9001 4.40154H15.4001V2.56453C15.3743 1.86033 15.0703 1.19509 14.5548 0.714642C14.0393 0.234197 13.3544 -0.0222515 12.6501 0.00151629H9.35006C8.64578 -0.0222515 7.96082 0.234197 7.44532 0.714642C6.92982 1.19509 6.62585 1.86033 6.60004 2.56453V4.40154H1.10001C0.808267 4.40154 0.528476 4.51744 0.322184 4.72373C0.115893 4.93002 0 5.20981 0 5.50155C0 5.79329 0.115893 6.07308 0.322184 6.27937C0.528476 6.48566 0.808267 6.60156 1.10001 6.60156H2.20001V18.7016C2.20001 19.5769 2.54769 20.4162 3.16657 21.0351C3.78544 21.654 4.62481 22.0017 5.50003 22.0017H16.5001C17.3753 22.0017 18.2147 21.654 18.8336 21.0351C19.4524 20.4162 19.8001 19.5769 19.8001 18.7016V6.60156H20.9001C21.1919 6.60156 21.4717 6.48566 21.678 6.27937C21.8842 6.07308 22.0001 5.79329 22.0001 5.50155C22.0001 5.20981 21.8842 4.93002 21.678 4.72373C21.4717 4.51744 21.1919 4.40154 20.9001 4.40154ZM8.80005 2.56453C8.80005 2.38853 9.03106 2.20153 9.35006 2.20153H12.6501C12.9691 2.20153 13.2001 2.38853 13.2001 2.56453V4.40154H8.80005V2.56453ZM17.6001 18.7016C17.6001 18.9934 17.4842 19.2732 17.2779 19.4795C17.0716 19.6857 16.7918 19.8016 16.5001 19.8016H5.50003C5.20829 19.8016 4.9285 19.6857 4.72221 19.4795C4.51592 19.2732 4.40003 18.9934 4.40003 18.7016V6.60156H17.6001V18.7016Z" fill="white"/>
<path d="M7.69766 16.5014C7.9894 16.5014 8.26919 16.3855 8.47549 16.1792C8.68178 15.9729 8.79767 15.6931 8.79767 15.4014V11.0014C8.79767 10.7096 8.68178 10.4298 8.47549 10.2236C8.26919 10.0173 7.9894 9.90137 7.69766 9.90137C7.40592 9.90137 7.12613 10.0173 6.91984 10.2236C6.71355 10.4298 6.59766 10.7096 6.59766 11.0014V15.4014C6.59766 15.6931 6.71355 15.9729 6.91984 16.1792C7.12613 16.3855 7.40592 16.5014 7.69766 16.5014ZM14.2977 16.5014C14.5894 16.5014 14.8692 16.3855 15.0755 16.1792C15.2818 15.9729 15.3977 15.6931 15.3977 15.4014V11.0014C15.3977 10.7096 15.2818 10.4298 15.0755 10.2236C14.8692 10.0173 14.5894 9.90137 14.2977 9.90137C14.006 9.90137 13.7262 10.0173 13.5199 10.2236C13.3136 10.4298 13.1977 10.7096 13.1977 11.0014V15.4014C13.1977 15.6931 13.3136 15.9729 13.5199 16.1792C13.7262 16.3855 14.006 16.5014 14.2977 16.5014Z" fill="white"/>
</svg>
