<svg width="151" height="90" viewBox="0 0 151 90" fill="none" xmlns="http://www.w3.org/2000/svg">
<g clip-path="url(#clip0)">
<path d="M108.391 89.803H45.04V25.003C45.04 11.2163 56.2908 0 70.1199 0H83.3108C97.1399 0 108.391 11.2163 108.391 25.003V89.803Z" fill="#F2F2F2"/>
<path d="M95.1999 89.8029H45.0401V25.0029C45.0263 19.7201 46.7042 14.5709 49.8297 10.3049C49.9449 10.1483 50.0599 9.99382 50.1784 9.84098C51.6901 7.86428 53.4892 6.12344 55.5162 4.67591C55.6307 4.59285 55.7456 4.51124 55.8623 4.42963C57.5584 3.25949 59.3931 2.30293 61.3247 1.58171C61.4394 1.53837 61.5562 1.49494 61.673 1.45329C63.4199 0.831776 65.2308 0.406042 67.0722 0.183949C67.1864 0.168402 67.3036 0.156236 67.4208 0.144071C69.2153 -0.0472097 71.0251 -0.0472097 72.8196 0.144071C72.9364 0.156236 73.0536 0.1684 73.1691 0.184115C75.0101 0.406223 76.8205 0.831905 78.567 1.4533C78.6838 1.49495 78.8006 1.53838 78.9157 1.5818C80.8234 2.29392 82.6366 3.23621 84.3146 4.38764C84.4312 4.46748 84.5479 4.5491 84.6628 4.63071C85.799 5.43924 86.8662 6.33999 87.8535 7.32376C88.6453 8.11285 89.3831 8.95399 90.062 9.84149C90.1802 9.99383 90.2951 10.1484 90.4101 10.3047C93.5357 14.5707 95.2137 19.72 95.1999 25.0029V89.8029Z" fill="#8794BA"/>
<path d="M91.1208 60.8203C92.6545 60.8203 93.8978 59.5808 93.8978 58.0518C93.8978 56.5228 92.6545 55.2833 91.1208 55.2833C89.5871 55.2833 88.3438 56.5228 88.3438 58.0518C88.3438 59.5808 89.5871 60.8203 91.1208 60.8203Z" fill="#EF2A82"/>
<path d="M103.201 87.8621H101.073L100.061 79.6798L103.201 79.68L103.201 87.8621Z" fill="#FFB8B8"/>
<path d="M99.5526 87.256H103.656V89.8319H96.9688C96.9688 89.4936 97.0356 89.1587 97.1654 88.8461C97.2953 88.5336 97.4856 88.2496 97.7255 88.0105C97.9655 87.7713 98.2503 87.5815 98.5638 87.4521C98.8773 87.3226 99.2133 87.256 99.5526 87.256Z" fill="#2F2E41"/>
<path d="M113.788 87.8621H111.66L110.647 79.6798L113.788 79.68L113.788 87.8621Z" fill="#FFB8B8"/>
<path d="M110.14 87.256H114.244V89.8319H107.557C107.557 89.4936 107.623 89.1587 107.753 88.8461C107.883 88.5336 108.073 88.2496 108.313 88.0105C108.553 87.7713 108.838 87.5815 109.152 87.4521C109.465 87.3226 109.801 87.256 110.14 87.256Z" fill="#2F2E41"/>
<path d="M92.5269 58.6002C92.3738 58.3754 92.272 58.1198 92.2287 57.8515C92.1855 57.5832 92.2017 57.3087 92.2763 57.0473C92.351 56.786 92.4822 56.5441 92.6607 56.3388C92.8393 56.1334 93.0608 55.9696 93.3097 55.8589L100.543 35.9834L104.102 37.9199L95.8434 56.9136C96.0023 57.3428 95.9978 57.8152 95.8307 58.2413C95.6635 58.6674 95.3454 59.0176 94.9366 59.2255C94.5278 59.4334 94.0567 59.4846 93.6126 59.3693C93.1684 59.2541 92.7821 58.9804 92.5269 58.6002Z" fill="#FFB8B8"/>
<path d="M112.701 62.335C112.464 62.1998 112.261 62.0146 112.104 61.7924C111.947 61.5702 111.841 61.3164 111.793 61.0489C111.745 60.7813 111.756 60.5066 111.827 60.244C111.897 59.9814 112.024 59.7374 112.199 59.529L109.958 38.5042L114.009 38.6886L114.94 59.3694C115.271 59.6856 115.475 60.1122 115.512 60.5682C115.55 61.0243 115.418 61.478 115.142 61.8436C114.866 62.2091 114.465 62.4611 114.015 62.5516C113.565 62.6422 113.098 62.5651 112.701 62.335Z" fill="#FFB8B8"/>
<path d="M106.239 32.302C108.594 32.302 110.502 30.3993 110.502 28.0522C110.502 25.7051 108.594 23.8024 106.239 23.8024C103.885 23.8024 101.977 25.7051 101.977 28.0522C101.977 30.3993 103.885 32.302 106.239 32.302Z" fill="#FFB8B8"/>
<path d="M112.674 57.5532H99.8223L99.8377 57.4535C99.8608 57.3045 102.128 42.4969 100.456 37.6526C100.288 37.1765 100.303 36.6554 100.497 36.1895C100.692 35.7237 101.052 35.346 101.509 35.1292H101.509C103.9 34.007 108.488 32.6252 112.361 35.9786C112.93 36.4802 113.375 37.1071 113.66 37.8097C113.945 38.5123 114.062 39.2714 114.002 40.0269L112.674 57.5532Z" fill="#EF2A82"/>
<path d="M102.29 44.6853L96.5039 43.5151L99.216 37.1078C99.3783 36.4872 99.7809 35.9561 100.335 35.6311C100.89 35.306 101.551 35.2135 102.174 35.3738C102.797 35.5341 103.331 35.9341 103.658 36.4862C103.985 37.0382 104.08 37.6972 103.921 38.3186L102.29 44.6853Z" fill="#EF2A82"/>
<path d="M109.701 46.8583L109.353 38.909C109.09 37.4146 109.948 36.002 111.267 35.7711C112.587 35.541 113.876 36.5775 114.141 38.0828L115.449 45.5106L109.701 46.8583Z" fill="#EF2A82"/>
<path d="M112.246 56.6016C114.314 64.4531 114.54 74.4357 113.982 85.3247L111.205 84.9786L106.172 64.2149L103.395 85.3247L100.271 85.1516C99.3373 73.7265 98.4285 63.9181 99.9235 57.4667L112.246 56.6016Z" fill="#2F2E41"/>
<path d="M109.048 31.3367C108.253 32.1812 106.776 31.7278 106.672 30.5741C106.664 30.4845 106.665 30.3944 106.674 30.3049C106.727 29.7938 107.024 29.3299 106.953 28.7903C106.937 28.656 106.886 28.528 106.807 28.4184C106.173 27.5724 104.685 28.7968 104.087 28.031C103.721 27.5614 104.152 26.822 103.87 26.2971C103.499 25.6044 102.399 25.9461 101.709 25.5667C100.941 25.1446 100.987 23.9705 101.492 23.2563C102.109 22.3853 103.189 21.9206 104.256 21.8536C105.323 21.7866 106.383 22.0742 107.379 22.4612C108.511 22.9009 109.633 23.5086 110.33 24.5008C111.177 25.7074 111.258 27.3295 110.834 28.7403C110.577 29.5986 109.697 30.647 109.048 31.3367Z" fill="#2F2E41"/>
<path d="M81.4013 71.0292H58.8381C58.541 71.0308 58.2553 70.9148 58.0438 70.7067C57.8323 70.4986 57.7123 70.2154 57.71 69.9191V19.7109C57.7123 19.4147 57.8323 19.1314 58.0438 18.9233C58.2553 18.7152 58.541 18.5993 58.8381 18.6008H81.4013C81.6985 18.5993 81.9842 18.7152 82.1957 18.9233C82.4071 19.1314 82.5272 19.4147 82.5295 19.7109V69.9191C82.5272 70.2154 82.4071 70.4986 82.1957 70.7067C81.9842 70.9148 81.6985 71.0308 81.4013 71.0292Z" fill="#0088F0"/>
<path d="M82.5295 34.8466H57.71V35.1926H82.5295V34.8466Z" fill="#CCCCCC"/>
<path d="M82.6164 54.5912H57.7969V54.9372H82.6164V54.5912Z" fill="#CCCCCC"/>
<path d="M65.8676 18.6008H65.5205V71.2022H65.8676V18.6008Z" fill="#CCCCCC"/>
<path d="M74.5454 18.6008H74.1982V71.2022H74.5454V18.6008Z" fill="#CCCCCC"/>
</g>
<defs>
<clipPath id="clip0">
<rect width="151" height="90" fill="white"/>
</clipPath>
</defs>
</svg>
