<svg width="143" height="99" viewBox="0 0 143 99" fill="none" xmlns="http://www.w3.org/2000/svg">
<g clip-path="url(#clip0)">
<path opacity="0.1" d="M80.885 13.4775C71.7189 13.4898 62.8961 10.8841 54.4571 7.98946C46.0182 5.0948 37.6442 1.85337 28.6485 0.479823C22.8632 -0.403084 16.2844 -0.321926 11.762 2.88384C7.40891 5.96787 6.14834 11.0723 5.54012 15.7881C5.08274 19.3357 4.87183 23.0591 6.58488 26.3043C7.77433 28.557 9.80988 30.4138 11.2446 32.5608C16.2525 40.0299 13.2409 49.5709 8.37396 57.2134C6.09193 60.7991 3.41874 64.2361 1.69342 68.0272C-0.0318933 71.8182 -0.739432 76.1172 1.02022 79.8591C2.76393 83.5678 6.7026 86.2596 10.9294 88.0979C19.5131 91.8386 29.5069 92.6404 39.2322 92.949C60.76 93.6339 82.3295 92.237 103.841 90.8401C111.802 90.3236 119.798 89.8035 127.595 88.307C131.923 87.4769 136.381 86.2448 139.45 83.5444C143.346 80.1161 144.143 74.5186 141.308 70.4951C136.554 63.7467 124.018 62.4739 120.609 55.1721C118.729 51.1523 120.35 46.5423 122.738 42.6676C127.858 34.3537 136.673 26.9068 136.821 17.608C136.923 11.2223 132.339 4.99273 125.493 2.21736C118.317 -0.689599 108.533 0.0580444 103.505 5.476C98.3355 11.0575 88.9781 13.4689 80.885 13.4775Z" fill="#6C63FF"/>
<path d="M121.708 79.3584C121.708 79.3584 120.201 78.3611 118.707 79.0706C118.707 79.0706 119.167 79.9585 121.058 79.8748L121.708 79.3584Z" fill="#0088F0"/>
<path d="M121.899 79.4113C121.899 79.4113 122.358 81.1623 121.208 82.3539C121.208 82.3539 120.516 81.632 121.208 79.8638L121.899 79.4113Z" fill="#0088F0"/>
<path d="M123.772 77.7303C123.772 77.7303 123.66 76.2411 120.307 76.7354C120.307 76.7354 120.291 77.6958 121.468 78.1508C122.645 78.6058 123.185 78.2221 123.772 77.7303Z" fill="#0088F0"/>
<path d="M123.983 77.7205C123.983 77.7205 125.401 78.1767 124.137 81.3308C124.137 81.3308 123.201 81.1217 123.033 79.8662C122.865 78.6107 123.363 78.1779 123.983 77.7205Z" fill="#0088F0"/>
<path d="M125.877 75.6079C125.877 75.6079 126.069 73.1572 122.642 73.408C122.642 73.408 122.397 75.6214 125.272 76.1969L125.877 75.6079Z" fill="#0088F0"/>
<path d="M128.142 72.8411C128.142 72.8411 127.672 70.0632 124.246 70.8908C124.246 70.8908 124.234 73.2924 127.583 73.5027L128.142 72.8411Z" fill="#0088F0"/>
<path d="M129.797 69.9808C129.797 69.9808 129.009 67.2755 125.615 68.0846C125.615 68.0846 126.423 70.5182 129.571 70.48L129.797 69.9808Z" fill="#0088F0"/>
<path d="M131.369 67.187C131.369 67.187 130.6 64.3797 127.322 65.2196C127.322 65.2196 128.416 67.8867 131.152 67.6617L131.369 67.187Z" fill="#0088F0"/>
<path d="M132.382 64.5334C132.382 64.5334 131.791 61.1001 128.735 61.8601C128.735 61.8601 129.623 64.9834 132.158 65.0339L132.382 64.5334Z" fill="#0088F0"/>
<path d="M133.333 61.3276C133.333 61.3276 132.623 57.8673 129.531 58.8683C129.531 58.8683 130.743 62.1392 133.113 61.801L133.333 61.3276Z" fill="#0088F0"/>
<path d="M133.916 58.3444C133.916 58.3444 132.789 54.8829 130.399 54.9763C130.399 54.9763 131.551 58.6322 133.716 59.0343L133.916 58.3444Z" fill="#0088F0"/>
<path d="M134.294 55.4325C134.294 55.4325 133.068 51.2664 131.123 51.5873C131.123 51.5873 131.972 54.7722 134.225 56.0818L134.294 55.4325Z" fill="#0088F0"/>
<path d="M134.507 51.9587C134.507 51.9587 133.357 48.4873 131.441 48.3484C131.441 48.3484 132.224 51.7644 134.469 52.8613L134.507 51.9587Z" fill="#0088F0"/>
<path d="M134.739 48.7173C134.739 48.7173 133.305 45.2423 132.041 45.1636C132.041 45.1636 132.664 48.5858 134.616 49.2879L134.739 48.7173Z" fill="#0088F0"/>
<path d="M134.897 45.7022C134.897 45.7022 134.016 41.9283 132.749 41.6147C132.749 41.6147 132.922 44.7025 134.77 45.985L134.897 45.7022Z" fill="#0088F0"/>
<path d="M135.375 41.7525C135.375 41.7525 134.448 38.7435 133.422 38.2848C133.422 38.2848 133.624 41.8324 135.139 42.4878L135.375 41.7525Z" fill="#0088F0"/>
<path d="M135.772 39.1701L135.958 33.8652C135.958 33.8652 134.039 37.8641 135.633 40.1009L135.772 39.1701Z" fill="#0088F0"/>
<path d="M137.252 33.8935C137.252 33.8935 138.634 30.02 138.969 29.8036C138.969 29.8036 136.259 32.317 136.524 35.5499L137.252 33.8935Z" fill="#0088F0"/>
<path d="M125.971 75.5894C125.971 75.5894 128.401 75.2709 128.329 78.7153C128.329 78.7153 126.132 79.0743 125.415 76.2252L125.971 75.5894Z" fill="#0088F0"/>
<path d="M128.257 72.7477C128.257 72.7477 131.065 72.7391 130.832 76.2646C130.832 76.2646 128.474 76.6876 127.696 73.4142L128.257 72.7477Z" fill="#0088F0"/>
<path d="M129.824 70.2083C129.824 70.2083 132.374 69.0094 134.004 72.1045C134.004 72.1045 131.65 73.103 129.599 70.7088L129.824 70.2083Z" fill="#0088F0"/>
<path d="M131.426 67.2129C131.426 67.2129 134.036 65.9377 135.569 68.9602C135.569 68.9602 132.849 69.8997 131.21 67.6912L131.426 67.2129Z" fill="#0088F0"/>
<path d="M132.349 64.6084C132.349 64.6084 134.861 62.202 136.866 64.6355C136.866 64.6355 134.3 66.6165 132.233 65.1446L132.349 64.6084Z" fill="#0088F0"/>
<path d="M133.19 61.2452C133.19 61.2452 135.718 58.7859 137.707 61.3584C137.707 61.3584 134.87 63.3787 133.1 61.7617L133.19 61.2452Z" fill="#0088F0"/>
<path d="M133.662 58.2461C133.662 58.2461 135.609 55.1719 137.902 55.8581C137.902 55.8581 135.882 59.113 133.684 58.9679L133.662 58.2461Z" fill="#0088F0"/>
<path d="M134.236 55.4129C134.236 55.4129 136.198 51.5419 138.054 52.2157C138.054 52.2157 136.639 55.1916 134.186 56.0658L134.236 55.4129Z" fill="#0088F0"/>
<path d="M134.372 51.757C134.372 51.757 136.389 48.7099 138.279 49.0825C138.279 49.0825 136.629 52.1727 134.176 52.6387L134.372 51.757Z" fill="#0088F0"/>
<path d="M134.529 48.6496C134.529 48.6496 136.093 45.2299 137.363 45.2065C137.363 45.2065 136.613 48.6017 134.635 49.23L134.529 48.6496Z" fill="#0088F0"/>
<path d="M134.836 45.6284C134.836 45.6284 136.574 42.1656 137.879 42.1582C137.879 42.1582 136.99 45.1193 134.894 45.9321L134.836 45.6284Z" fill="#0088F0"/>
<path d="M135.097 41.9688C135.097 41.9688 136.396 39.1037 137.473 38.7791C137.473 38.7791 136.823 42.2713 135.24 42.7288L135.097 41.9688Z" fill="#0088F0"/>
<path d="M135.926 39.0656L138.831 34.6277C138.831 34.6277 138.087 39.0053 135.502 39.9153L135.926 39.0656Z" fill="#0088F0"/>
<path d="M137.92 34.2514C137.92 34.2514 141.296 31.915 141.419 31.5375C141.419 31.5375 139.702 34.8096 136.514 35.3876L137.92 34.2514Z" fill="#0088F0"/>
<path d="M138.122 33.2C138.122 33.2 141.999 29.463 142.988 29.4667C142.988 29.4667 139.791 29.613 138.029 33.0008L138.122 33.2Z" fill="#0088F0"/>
<path d="M135.135 42.5234L135.276 42.5418C136.004 36.8251 137.066 33.4422 138.265 33.0278L138.219 32.8926C136.947 33.3353 135.878 36.6665 135.135 42.5234Z" fill="#444053"/>
<path d="M134.063 56.195L134.277 56.2122C134.322 55.6786 134.357 55.1326 134.38 54.5878C134.583 49.856 134.899 45.5104 135.313 42.253L135.19 42.0992C134.775 45.364 134.37 49.8401 134.166 54.5792C134.143 55.1203 134.109 55.6638 134.063 56.195Z" fill="#444053"/>
<path d="M117.73 82.0858C117.766 82.0698 121.522 80.3876 125.42 76.3764C127.704 74.0271 129.602 71.3293 131.043 68.3835C132.845 64.7031 133.944 60.1804 134.312 55.7867L134.09 55.8913C133.262 65.7533 128.785 72.4919 125.226 76.1625C121.365 80.138 117.651 81.803 117.614 81.819L117.73 82.0858Z" fill="#444053"/>
<path d="M127.455 10.4806H9.62876C9.35037 10.4806 9.08339 10.5915 8.88654 10.7889C8.68969 10.9863 8.5791 11.254 8.5791 11.5332V14.6H128.505V11.5332C128.505 11.254 128.394 10.9863 128.198 10.7889C128.001 10.5915 127.734 10.4806 127.455 10.4806Z" fill="#3F3D56"/>
<path d="M8.5791 14.6V83.6143C8.5791 84.1772 8.80209 84.7171 9.19901 85.1151C9.59592 85.5131 10.1343 85.7367 10.6956 85.7367H126.389C126.95 85.7367 127.488 85.5131 127.885 85.1151C128.282 84.7171 128.505 84.1772 128.505 83.6143V14.6H8.5791Z" fill="white"/>
<path opacity="0.8" d="M10.4788 13.0014C10.7497 13.0014 10.9693 12.7812 10.9693 12.5096C10.9693 12.2379 10.7497 12.0177 10.4788 12.0177C10.2079 12.0177 9.98828 12.2379 9.98828 12.5096C9.98828 12.7812 10.2079 13.0014 10.4788 13.0014Z" fill="#FA5959"/>
<path opacity="0.8" d="M11.8274 13.0014C12.0983 13.0014 12.3179 12.7812 12.3179 12.5096C12.3179 12.2379 12.0983 12.0177 11.8274 12.0177C11.5565 12.0177 11.3369 12.2379 11.3369 12.5096C11.3369 12.7812 11.5565 13.0014 11.8274 13.0014Z" fill="#FED253"/>
<path opacity="0.8" d="M13.176 13.0014C13.4469 13.0014 13.6665 12.7812 13.6665 12.5096C13.6665 12.2379 13.4469 12.0177 13.176 12.0177C12.9051 12.0177 12.6855 12.2379 12.6855 12.5096C12.6855 12.7812 12.9051 13.0014 13.176 13.0014Z" fill="#8CCF4D"/>
<path opacity="0.05" d="M116.109 26.1072H19.7266V68.6073H116.109V26.1072Z" fill="black"/>
<path d="M115.373 26.4294H20.4619V67.9925H115.373V26.4294Z" fill="#172755"/>
<path d="M46.3356 37.1263C44.4681 37.1263 42.6426 37.6817 41.0899 38.7221C39.5371 39.7625 38.3269 41.2413 37.6123 42.9714C36.8976 44.7016 36.7107 46.6054 37.075 48.4421C37.4393 50.2788 38.3386 51.9659 39.6591 53.2901C40.9796 54.6143 42.662 55.5161 44.4935 55.8814C46.3251 56.2468 48.2236 56.0593 49.9489 55.3426C51.6742 54.626 53.1488 53.4124 54.1863 51.8553C55.2238 50.2982 55.7776 48.4675 55.7776 46.5949C55.7776 45.3514 55.5334 44.1202 55.0589 42.9714C54.5844 41.8226 53.8889 40.7788 53.0121 39.8996C52.1353 39.0204 51.0944 38.3229 49.9489 37.8471C48.8033 37.3713 47.5755 37.1263 46.3356 37.1263ZM48.029 46.8223V51.3057H44.6912V46.8223C44.2293 46.4717 43.8889 45.9845 43.718 45.4294C43.5471 44.8743 43.5544 44.2794 43.7388 43.7287C43.9232 43.178 44.2754 42.6993 44.7458 42.3601C45.2161 42.021 45.7808 41.8385 46.3601 41.8385C46.9394 41.8385 47.5041 42.021 47.9744 42.3601C48.4448 42.6993 48.797 43.178 48.9814 43.7287C49.1658 44.2794 49.1731 44.8743 49.0022 45.4294C48.8313 45.9845 48.4909 46.4717 48.029 46.8223Z" fill="#EF2A82"/>
<path opacity="0.05" d="M46.3356 37.1263C44.4681 37.1263 42.6426 37.6817 41.0899 38.7221C39.5371 39.7625 38.3269 41.2413 37.6123 42.9714C36.8976 44.7016 36.7107 46.6054 37.075 48.4421C37.4393 50.2788 38.3386 51.9659 39.6591 53.2901C40.9796 54.6143 42.662 55.5161 44.4935 55.8814C46.3251 56.2468 48.2236 56.0593 49.9489 55.3426C51.6742 54.626 53.1488 53.4124 54.1863 51.8553C55.2238 50.2982 55.7776 48.4675 55.7776 46.5949C55.7776 45.3514 55.5334 44.1202 55.0589 42.9714C54.5844 41.8226 53.8889 40.7788 53.0121 39.8996C52.1353 39.0204 51.0944 38.3229 49.9489 37.8471C48.8033 37.3713 47.5755 37.1263 46.3356 37.1263ZM48.029 46.8223V51.3057H44.6912V46.8223C44.2293 46.4717 43.8889 45.9845 43.718 45.4294C43.5471 44.8743 43.5544 44.2794 43.7388 43.7287C43.9232 43.178 44.2754 42.6993 44.7458 42.3601C45.2161 42.021 45.7808 41.8385 46.3601 41.8385C46.9394 41.8385 47.5041 42.021 47.9744 42.3601C48.4448 42.6993 48.797 43.178 48.9814 43.7287C49.1658 44.2794 49.1731 44.8743 49.0022 45.4294C48.8313 45.9845 48.4909 46.4717 48.029 46.8223Z" fill="#EF2A82"/>
<path d="M46.3351 34.421C43.934 34.421 41.5869 35.135 39.5906 36.4727C37.5942 37.8103 36.0382 39.7116 35.1194 41.9361C34.2006 44.1606 33.9602 46.6083 34.4286 48.9698C34.897 51.3313 36.0532 53.5005 37.751 55.203C39.4487 56.9055 41.6118 58.065 43.9667 58.5347C46.3216 59.0044 48.7625 58.7633 50.9807 57.8419C53.199 56.9205 55.0949 55.3602 56.4289 53.3582C57.7628 51.3562 58.4748 49.0026 58.4748 46.5948C58.4748 43.3661 57.1958 40.2697 54.9191 37.9866C52.6425 35.7036 49.5547 34.421 46.3351 34.421ZM48.5116 46.8875V52.651H44.2198V46.8875C43.6257 46.4366 43.1878 45.81 42.968 45.0961C42.7481 44.3823 42.7574 43.6172 42.9945 42.9089C43.2317 42.2006 43.6847 41.5849 44.2895 41.1487C44.8944 40.7125 45.6207 40.4778 46.3657 40.4778C47.1108 40.4778 47.837 40.7125 48.4419 41.1487C49.0468 41.5849 49.4997 42.2006 49.7369 42.9089C49.974 43.6172 49.9833 44.3823 49.7635 45.0961C49.5436 45.81 49.1057 46.4366 48.5116 46.8875Z" fill="#EF2A82"/>
<path d="M102.742 44.9976H63.5029V49.1785H102.742V44.9976Z" fill="white"/>
<path d="M102.742 52.6216H94.2812V56.8025H102.742V52.6216Z" fill="#0088F0"/>
<path d="M67.3659 47.0253H66.6559L67.2875 46.3933C67.2988 46.3816 67.3051 46.3659 67.3051 46.3496C67.3051 46.3333 67.2988 46.3177 67.2875 46.306C67.2818 46.3002 67.275 46.2956 67.2675 46.2925C67.26 46.2894 67.252 46.2878 67.2439 46.2878C67.2358 46.2878 67.2278 46.2894 67.2203 46.2925C67.2129 46.2956 67.2061 46.3002 67.2004 46.306L66.5689 46.9392V46.226C66.5689 46.2097 66.5624 46.1941 66.5509 46.1826C66.5394 46.171 66.5238 46.1646 66.5076 46.1646C66.4914 46.1649 66.476 46.1714 66.4646 46.1829C66.4531 46.1944 66.4466 46.2098 66.4463 46.226V46.9392L65.816 46.3023C65.8103 46.2965 65.8035 46.2919 65.796 46.2888C65.7885 46.2857 65.7805 46.2841 65.7724 46.2841C65.7643 46.2841 65.7563 46.2857 65.7489 46.2888C65.7414 46.2919 65.7346 46.2965 65.7289 46.3023C65.7176 46.314 65.7113 46.3296 65.7113 46.3459C65.7113 46.3622 65.7176 46.3779 65.7289 46.3896L66.3604 47.0216H65.6492C65.633 47.0219 65.6176 47.0285 65.6062 47.04C65.5948 47.0515 65.5882 47.0669 65.5879 47.0831C65.5879 47.0994 65.5943 47.1151 65.6058 47.1266C65.6173 47.1381 65.6329 47.1446 65.6492 47.1446H66.3604L65.7289 47.7779C65.7176 47.7896 65.7113 47.8052 65.7113 47.8215C65.7113 47.8378 65.7176 47.8535 65.7289 47.8652C65.7407 47.8763 65.7563 47.8824 65.7724 47.8824C65.7886 47.8824 65.8042 47.8763 65.816 47.8652L66.4463 47.2319V47.9439C66.4463 47.9602 66.4527 47.9758 66.4642 47.9874C66.4757 47.9989 66.4913 48.0054 66.5076 48.0054C66.5238 48.0054 66.5394 47.9989 66.5509 47.9874C66.5624 47.9758 66.5689 47.9602 66.5689 47.9439V47.2319L67.2004 47.8652C67.2122 47.8763 67.2278 47.8824 67.2439 47.8824C67.2601 47.8824 67.2757 47.8763 67.2875 47.8652C67.2988 47.8535 67.3051 47.8378 67.3051 47.8215C67.3051 47.8052 67.2988 47.7896 67.2875 47.7779L66.6559 47.1446H67.3659C67.3822 47.1446 67.3978 47.1381 67.4093 47.1266C67.4208 47.1151 67.4273 47.0994 67.4273 47.0831C67.4263 47.0675 67.4194 47.0528 67.408 47.042C67.3966 47.0313 67.3816 47.0253 67.3659 47.0253Z" fill="#6C63FF"/>
<path d="M69.9411 47.0253H69.2311L69.8626 46.3933C69.874 46.3816 69.8803 46.3659 69.8803 46.3496C69.8803 46.3333 69.874 46.3177 69.8626 46.306C69.8569 46.3002 69.8502 46.2956 69.8427 46.2925C69.8352 46.2894 69.8272 46.2878 69.8191 46.2878C69.811 46.2878 69.803 46.2894 69.7955 46.2925C69.7881 46.2956 69.7813 46.3002 69.7756 46.306L69.1441 46.9392V46.226C69.1441 46.2097 69.1376 46.1941 69.1261 46.1826C69.1146 46.171 69.099 46.1646 69.0828 46.1646C69.0666 46.1649 69.0512 46.1714 69.0398 46.1829C69.0283 46.1944 69.0218 46.2098 69.0215 46.226V46.9392L68.3912 46.3023C68.3855 46.2965 68.3787 46.2919 68.3712 46.2888C68.3637 46.2857 68.3557 46.2841 68.3476 46.2841C68.3395 46.2841 68.3315 46.2857 68.3241 46.2888C68.3166 46.2919 68.3098 46.2965 68.3041 46.3023C68.2928 46.314 68.2865 46.3296 68.2865 46.3459C68.2865 46.3622 68.2928 46.3779 68.3041 46.3896L68.9356 47.0216H68.2244C68.2082 47.0219 68.1928 47.0285 68.1814 47.04C68.17 47.0515 68.1634 47.0669 68.1631 47.0831C68.1631 47.0994 68.1695 47.1151 68.181 47.1266C68.1925 47.1381 68.2081 47.1446 68.2244 47.1446H68.9356L68.3041 47.7779C68.2928 47.7896 68.2865 47.8052 68.2865 47.8215C68.2865 47.8378 68.2928 47.8535 68.3041 47.8652C68.3159 47.8763 68.3315 47.8824 68.3476 47.8824C68.3638 47.8824 68.3794 47.8763 68.3912 47.8652L69.0215 47.2319V47.9439C69.0215 47.9602 69.0279 47.9758 69.0394 47.9874C69.0509 47.9989 69.0665 48.0054 69.0828 48.0054C69.099 48.0054 69.1146 47.9989 69.1261 47.9874C69.1376 47.9758 69.1441 47.9602 69.1441 47.9439V47.2319L69.7756 47.8652C69.7874 47.8763 69.8029 47.8824 69.8191 47.8824C69.8353 47.8824 69.8508 47.8763 69.8626 47.8652C69.874 47.8535 69.8803 47.8378 69.8803 47.8215C69.8803 47.8052 69.874 47.7896 69.8626 47.7779L69.2311 47.1446H69.9411C69.9574 47.1446 69.973 47.1381 69.9845 47.1266C69.996 47.1151 70.0024 47.0994 70.0024 47.0831C70.0015 47.0675 69.9946 47.0528 69.9832 47.042C69.9718 47.0313 69.9568 47.0253 69.9411 47.0253Z" fill="#6C63FF"/>
<path d="M72.5163 47.0253H71.8063L72.4378 46.3933C72.4492 46.3816 72.4555 46.3659 72.4555 46.3496C72.4555 46.3333 72.4492 46.3177 72.4378 46.306C72.4321 46.3002 72.4254 46.2956 72.4179 46.2925C72.4104 46.2894 72.4024 46.2878 72.3943 46.2878C72.3862 46.2878 72.3782 46.2894 72.3707 46.2925C72.3633 46.2956 72.3565 46.3002 72.3508 46.306L71.7193 46.9392V46.226C71.7193 46.2097 71.7128 46.1941 71.7013 46.1826C71.6898 46.171 71.6742 46.1646 71.658 46.1646C71.6418 46.1649 71.6264 46.1714 71.6149 46.1829C71.6035 46.1944 71.597 46.2098 71.5966 46.226V46.9392L70.9664 46.3023C70.9607 46.2965 70.9539 46.2919 70.9464 46.2888C70.9389 46.2857 70.9309 46.2841 70.9228 46.2841C70.9147 46.2841 70.9067 46.2857 70.8992 46.2888C70.8918 46.2919 70.885 46.2965 70.8793 46.3023C70.868 46.314 70.8617 46.3296 70.8617 46.3459C70.8617 46.3622 70.868 46.3779 70.8793 46.3896L71.5108 47.0216H70.7996C70.7834 47.0219 70.768 47.0285 70.7566 47.04C70.7451 47.0515 70.7386 47.0669 70.7383 47.0831C70.7383 47.0994 70.7447 47.1151 70.7562 47.1266C70.7677 47.1381 70.7833 47.1446 70.7996 47.1446H71.5108L70.8793 47.7779C70.868 47.7896 70.8617 47.8052 70.8617 47.8215C70.8617 47.8378 70.868 47.8535 70.8793 47.8652C70.8911 47.8763 70.9067 47.8824 70.9228 47.8824C70.939 47.8824 70.9545 47.8763 70.9664 47.8652L71.5966 47.2319V47.9439C71.5966 47.9602 71.6031 47.9758 71.6146 47.9874C71.6261 47.9989 71.6417 48.0054 71.658 48.0054C71.6742 48.0054 71.6898 47.9989 71.7013 47.9874C71.7128 47.9758 71.7193 47.9602 71.7193 47.9439V47.2319L72.3508 47.8652C72.3626 47.8763 72.3781 47.8824 72.3943 47.8824C72.4105 47.8824 72.426 47.8763 72.4378 47.8652C72.4492 47.8535 72.4555 47.8378 72.4555 47.8215C72.4555 47.8052 72.4492 47.7896 72.4378 47.7779L71.8063 47.1446H72.5163C72.5326 47.1446 72.5482 47.1381 72.5597 47.1266C72.5712 47.1151 72.5776 47.0994 72.5776 47.0831C72.5767 47.0675 72.5698 47.0528 72.5584 47.042C72.547 47.0313 72.532 47.0253 72.5163 47.0253Z" fill="#6C63FF"/>
<path d="M75.0915 47.0253H74.3815L75.013 46.3933C75.0244 46.3816 75.0307 46.3659 75.0307 46.3496C75.0307 46.3333 75.0244 46.3177 75.013 46.306C75.0073 46.3002 75.0006 46.2956 74.9931 46.2925C74.9856 46.2894 74.9776 46.2878 74.9695 46.2878C74.9614 46.2878 74.9534 46.2894 74.9459 46.2925C74.9385 46.2956 74.9317 46.3002 74.926 46.306L74.2945 46.9392V46.226C74.2945 46.2097 74.288 46.1941 74.2765 46.1826C74.265 46.171 74.2494 46.1646 74.2332 46.1646C74.217 46.1649 74.2016 46.1714 74.1901 46.1829C74.1787 46.1944 74.1722 46.2098 74.1718 46.226V46.9392L73.5416 46.3023C73.5359 46.2965 73.5291 46.2919 73.5216 46.2888C73.5141 46.2857 73.5061 46.2841 73.498 46.2841C73.4899 46.2841 73.4819 46.2857 73.4744 46.2888C73.467 46.2919 73.4602 46.2965 73.4545 46.3023C73.4432 46.314 73.4368 46.3296 73.4368 46.3459C73.4368 46.3622 73.4432 46.3779 73.4545 46.3896L74.086 47.0216H73.3748C73.3586 47.0219 73.3432 47.0285 73.3318 47.04C73.3203 47.0515 73.3138 47.0669 73.3135 47.0831C73.3135 47.0994 73.3199 47.1151 73.3314 47.1266C73.3429 47.1381 73.3585 47.1446 73.3748 47.1446H74.086L73.4545 47.7779C73.4432 47.7896 73.4368 47.8052 73.4368 47.8215C73.4368 47.8378 73.4432 47.8535 73.4545 47.8652C73.4663 47.8763 73.4819 47.8824 73.498 47.8824C73.5142 47.8824 73.5297 47.8763 73.5416 47.8652L74.1718 47.2319V47.9439C74.1718 47.9602 74.1783 47.9758 74.1898 47.9874C74.2013 47.9989 74.2169 48.0054 74.2332 48.0054C74.2494 48.0054 74.265 47.9989 74.2765 47.9874C74.288 47.9758 74.2945 47.9602 74.2945 47.9439V47.2319L74.926 47.8652C74.9378 47.8763 74.9533 47.8824 74.9695 47.8824C74.9857 47.8824 75.0012 47.8763 75.013 47.8652C75.0244 47.8535 75.0307 47.8378 75.0307 47.8215C75.0307 47.8052 75.0244 47.7896 75.013 47.7779L74.3815 47.1446H75.0915C75.1078 47.1446 75.1234 47.1381 75.1349 47.1266C75.1464 47.1151 75.1528 47.0994 75.1528 47.0831C75.1519 47.0675 75.145 47.0528 75.1336 47.042C75.1222 47.0313 75.1072 47.0253 75.0915 47.0253Z" fill="#6C63FF"/>
<path d="M77.6657 47.0253H76.9557L77.5873 46.3933C77.5986 46.3816 77.6049 46.3659 77.6049 46.3496C77.6049 46.3333 77.5986 46.3177 77.5873 46.306C77.5816 46.3002 77.5748 46.2956 77.5673 46.2925C77.5598 46.2894 77.5518 46.2878 77.5437 46.2878C77.5356 46.2878 77.5276 46.2894 77.5201 46.2925C77.5127 46.2956 77.5059 46.3002 77.5002 46.306L76.8687 46.9392V46.226C76.8687 46.2097 76.8622 46.1941 76.8507 46.1826C76.8392 46.171 76.8236 46.1646 76.8074 46.1646C76.7912 46.1649 76.7758 46.1714 76.7644 46.1829C76.7529 46.1944 76.7464 46.2098 76.7461 46.226V46.9392L76.1158 46.3023C76.1101 46.2965 76.1033 46.2919 76.0958 46.2888C76.0883 46.2857 76.0803 46.2841 76.0722 46.2841C76.0641 46.2841 76.0561 46.2857 76.0487 46.2888C76.0412 46.2919 76.0344 46.2965 76.0287 46.3023C76.0174 46.314 76.0111 46.3296 76.0111 46.3459C76.0111 46.3622 76.0174 46.3779 76.0287 46.3896L76.6602 47.0216H75.949C75.9328 47.0219 75.9174 47.0285 75.906 47.04C75.8946 47.0515 75.888 47.0669 75.8877 47.0831C75.8877 47.0994 75.8942 47.1151 75.9057 47.1266C75.9171 47.1381 75.9327 47.1446 75.949 47.1446H76.6602L76.0287 47.7779C76.0174 47.7896 76.0111 47.8052 76.0111 47.8215C76.0111 47.8378 76.0174 47.8535 76.0287 47.8652C76.0405 47.8763 76.0561 47.8824 76.0722 47.8824C76.0884 47.8824 76.104 47.8763 76.1158 47.8652L76.7461 47.2319V47.9439C76.7461 47.9602 76.7525 47.9758 76.764 47.9874C76.7755 47.9989 76.7911 48.0054 76.8074 48.0054C76.8236 48.0054 76.8392 47.9989 76.8507 47.9874C76.8622 47.9758 76.8687 47.9602 76.8687 47.9439V47.2319L77.5002 47.8652C77.512 47.8763 77.5276 47.8824 77.5437 47.8824C77.5599 47.8824 77.5754 47.8763 77.5873 47.8652C77.5986 47.8535 77.6049 47.8378 77.6049 47.8215C77.6049 47.8052 77.5986 47.7896 77.5873 47.7779L76.9557 47.1446H77.6657C77.682 47.1446 77.6976 47.1381 77.7091 47.1266C77.7206 47.1151 77.727 47.0994 77.727 47.0831C77.7261 47.0675 77.7192 47.0528 77.7078 47.042C77.6964 47.0313 77.6814 47.0253 77.6657 47.0253Z" fill="#6C63FF"/>
<path d="M80.2419 47.0253H79.5319L80.1634 46.3933C80.1747 46.3816 80.1811 46.3659 80.1811 46.3496C80.1811 46.3333 80.1747 46.3177 80.1634 46.306C80.1577 46.3002 80.1509 46.2956 80.1435 46.2925C80.136 46.2894 80.128 46.2878 80.1199 46.2878C80.1118 46.2878 80.1038 46.2894 80.0963 46.2925C80.0888 46.2956 80.0821 46.3002 80.0764 46.306L79.4449 46.9392V46.226C79.4449 46.2097 79.4384 46.1941 79.4269 46.1826C79.4154 46.171 79.3998 46.1646 79.3835 46.1646C79.3674 46.1649 79.352 46.1714 79.3405 46.1829C79.3291 46.1944 79.3225 46.2098 79.3222 46.226V46.9392L78.6919 46.3023C78.6862 46.2965 78.6795 46.2919 78.672 46.2888C78.6645 46.2857 78.6565 46.2841 78.6484 46.2841C78.6403 46.2841 78.6323 46.2857 78.6248 46.2888C78.6174 46.2919 78.6106 46.2965 78.6049 46.3023C78.5936 46.314 78.5872 46.3296 78.5872 46.3459C78.5872 46.3622 78.5936 46.3779 78.6049 46.3896L79.2364 47.0216H78.5252C78.509 47.0219 78.4936 47.0285 78.4822 47.04C78.4707 47.0515 78.4642 47.0669 78.4639 47.0831C78.4639 47.0994 78.4703 47.1151 78.4818 47.1266C78.4933 47.1381 78.5089 47.1446 78.5252 47.1446H79.2364L78.6049 47.7779C78.5936 47.7896 78.5872 47.8052 78.5872 47.8215C78.5872 47.8378 78.5936 47.8535 78.6049 47.8652C78.6167 47.8763 78.6322 47.8824 78.6484 47.8824C78.6646 47.8824 78.6801 47.8763 78.6919 47.8652L79.3222 47.2319V47.9439C79.3222 47.9602 79.3287 47.9758 79.3402 47.9874C79.3517 47.9989 79.3673 48.0054 79.3835 48.0054C79.3998 48.0054 79.4154 47.9989 79.4269 47.9874C79.4384 47.9758 79.4449 47.9602 79.4449 47.9439V47.2319L80.0764 47.8652C80.0882 47.8763 80.1037 47.8824 80.1199 47.8824C80.136 47.8824 80.1516 47.8763 80.1634 47.8652C80.1747 47.8535 80.1811 47.8378 80.1811 47.8215C80.1811 47.8052 80.1747 47.7896 80.1634 47.7779L79.5319 47.1446H80.2419C80.2582 47.1446 80.2738 47.1381 80.2853 47.1266C80.2968 47.1151 80.3032 47.0994 80.3032 47.0831C80.3023 47.0675 80.2954 47.0528 80.284 47.042C80.2726 47.0313 80.2575 47.0253 80.2419 47.0253Z" fill="#6C63FF"/>
<path d="M82.8161 47.0253H82.1061L82.7376 46.3933C82.749 46.3816 82.7553 46.3659 82.7553 46.3496C82.7553 46.3333 82.749 46.3177 82.7376 46.306C82.7319 46.3002 82.7252 46.2956 82.7177 46.2925C82.7102 46.2894 82.7022 46.2878 82.6941 46.2878C82.686 46.2878 82.678 46.2894 82.6705 46.2925C82.6631 46.2956 82.6563 46.3002 82.6506 46.306L82.0191 46.9392V46.226C82.0191 46.2097 82.0126 46.1941 82.0011 46.1826C81.9896 46.171 81.974 46.1646 81.9578 46.1646C81.9416 46.1649 81.9262 46.1714 81.9148 46.1829C81.9033 46.1944 81.8968 46.2098 81.8965 46.226V46.9392L81.2662 46.3023C81.2605 46.2965 81.2537 46.2919 81.2462 46.2888C81.2387 46.2857 81.2307 46.2841 81.2226 46.2841C81.2145 46.2841 81.2065 46.2857 81.1991 46.2888C81.1916 46.2919 81.1848 46.2965 81.1791 46.3023C81.1678 46.314 81.1615 46.3296 81.1615 46.3459C81.1615 46.3622 81.1678 46.3779 81.1791 46.3896L81.8106 47.0216H81.0994C81.0832 47.0219 81.0678 47.0285 81.0564 47.04C81.045 47.0515 81.0384 47.0669 81.0381 47.0831C81.0381 47.0994 81.0445 47.1151 81.056 47.1266C81.0675 47.1381 81.0831 47.1446 81.0994 47.1446H81.8106L81.1791 47.7779C81.1678 47.7896 81.1615 47.8052 81.1615 47.8215C81.1615 47.8378 81.1678 47.8535 81.1791 47.8652C81.1909 47.8763 81.2065 47.8824 81.2226 47.8824C81.2388 47.8824 81.2544 47.8763 81.2662 47.8652L81.8965 47.2319V47.9439C81.8965 47.9602 81.9029 47.9758 81.9144 47.9874C81.9259 47.9989 81.9415 48.0054 81.9578 48.0054C81.974 48.0054 81.9896 47.9989 82.0011 47.9874C82.0126 47.9758 82.0191 47.9602 82.0191 47.9439V47.2319L82.6506 47.8652C82.6624 47.8763 82.6779 47.8824 82.6941 47.8824C82.7103 47.8824 82.7258 47.8763 82.7376 47.8652C82.749 47.8535 82.7553 47.8378 82.7553 47.8215C82.7553 47.8052 82.749 47.7896 82.7376 47.7779L82.1061 47.1446H82.8161C82.8324 47.1446 82.848 47.1381 82.8595 47.1266C82.871 47.1151 82.8774 47.0994 82.8774 47.0831C82.8765 47.0675 82.8696 47.0528 82.8582 47.042C82.8468 47.0313 82.8318 47.0253 82.8161 47.0253Z" fill="#6C63FF"/>
<path d="M85.3913 47.0253H84.6813L85.3128 46.3933C85.3241 46.3816 85.3305 46.3659 85.3305 46.3496C85.3305 46.3333 85.3241 46.3177 85.3128 46.306C85.3071 46.3002 85.3004 46.2956 85.2929 46.2925C85.2854 46.2894 85.2774 46.2878 85.2693 46.2878C85.2612 46.2878 85.2532 46.2894 85.2457 46.2925C85.2383 46.2956 85.2315 46.3002 85.2258 46.306L84.5943 46.9392V46.226C84.5943 46.2097 84.5878 46.1941 84.5763 46.1826C84.5648 46.171 84.5492 46.1646 84.533 46.1646C84.5168 46.1649 84.5014 46.1714 84.4899 46.1829C84.4785 46.1944 84.472 46.2098 84.4716 46.226V46.9392L83.8414 46.3023C83.8357 46.2965 83.8289 46.2919 83.8214 46.2888C83.8139 46.2857 83.8059 46.2841 83.7978 46.2841C83.7897 46.2841 83.7817 46.2857 83.7742 46.2888C83.7668 46.2919 83.76 46.2965 83.7543 46.3023C83.743 46.314 83.7367 46.3296 83.7367 46.3459C83.7367 46.3622 83.743 46.3779 83.7543 46.3896L84.3858 47.0216H83.6746C83.6584 47.0219 83.643 47.0285 83.6316 47.04C83.6201 47.0515 83.6136 47.0669 83.6133 47.0831C83.6133 47.0994 83.6197 47.1151 83.6312 47.1266C83.6427 47.1381 83.6583 47.1446 83.6746 47.1446H84.3858L83.7543 47.7779C83.743 47.7896 83.7367 47.8052 83.7367 47.8215C83.7367 47.8378 83.743 47.8535 83.7543 47.8652C83.7661 47.8763 83.7817 47.8824 83.7978 47.8824C83.814 47.8824 83.8295 47.8763 83.8414 47.8652L84.4716 47.2319V47.9439C84.4716 47.9602 84.4781 47.9758 84.4896 47.9874C84.5011 47.9989 84.5167 48.0054 84.533 48.0054C84.5492 48.0054 84.5648 47.9989 84.5763 47.9874C84.5878 47.9758 84.5943 47.9602 84.5943 47.9439V47.2319L85.2258 47.8652C85.2376 47.8763 85.2531 47.8824 85.2693 47.8824C85.2855 47.8824 85.301 47.8763 85.3128 47.8652C85.3241 47.8535 85.3305 47.8378 85.3305 47.8215C85.3305 47.8052 85.3241 47.7896 85.3128 47.7779L84.6813 47.1446H85.3913C85.4076 47.1446 85.4232 47.1381 85.4347 47.1266C85.4462 47.1151 85.4526 47.0994 85.4526 47.0831C85.4517 47.0675 85.4448 47.0528 85.4334 47.042C85.422 47.0313 85.407 47.0253 85.3913 47.0253Z" fill="#6C63FF"/>
<path d="M87.9665 47.0253H87.2565L87.888 46.3933C87.8994 46.3816 87.9057 46.3659 87.9057 46.3496C87.9057 46.3333 87.8994 46.3177 87.888 46.306C87.8823 46.3002 87.8756 46.2956 87.8681 46.2925C87.8606 46.2894 87.8526 46.2878 87.8445 46.2878C87.8364 46.2878 87.8284 46.2894 87.8209 46.2925C87.8135 46.2956 87.8067 46.3002 87.801 46.306L87.1695 46.9392V46.226C87.1695 46.2097 87.163 46.1941 87.1515 46.1826C87.14 46.171 87.1244 46.1646 87.1082 46.1646C87.092 46.1649 87.0766 46.1714 87.0651 46.1829C87.0537 46.1944 87.0472 46.2098 87.0468 46.226V46.9392L86.4166 46.3023C86.4109 46.2965 86.4041 46.2919 86.3966 46.2888C86.3891 46.2857 86.3811 46.2841 86.373 46.2841C86.3649 46.2841 86.3569 46.2857 86.3494 46.2888C86.342 46.2919 86.3352 46.2965 86.3295 46.3023C86.3182 46.314 86.3118 46.3296 86.3118 46.3459C86.3118 46.3622 86.3182 46.3779 86.3295 46.3896L86.961 47.0216H86.2498C86.2336 47.0219 86.2182 47.0285 86.2068 47.04C86.1953 47.0515 86.1888 47.0669 86.1885 47.0831C86.1885 47.0994 86.1949 47.1151 86.2064 47.1266C86.2179 47.1381 86.2335 47.1446 86.2498 47.1446H86.961L86.3295 47.7779C86.3182 47.7896 86.3118 47.8052 86.3118 47.8215C86.3118 47.8378 86.3182 47.8535 86.3295 47.8652C86.3413 47.8763 86.3569 47.8824 86.373 47.8824C86.3892 47.8824 86.4047 47.8763 86.4166 47.8652L87.0468 47.2319V47.9439C87.0468 47.9602 87.0533 47.9758 87.0648 47.9874C87.0763 47.9989 87.0919 48.0054 87.1082 48.0054C87.1244 48.0054 87.14 47.9989 87.1515 47.9874C87.163 47.9758 87.1695 47.9602 87.1695 47.9439V47.2319L87.801 47.8652C87.8128 47.8763 87.8283 47.8824 87.8445 47.8824C87.8607 47.8824 87.8762 47.8763 87.888 47.8652C87.8994 47.8535 87.9057 47.8378 87.9057 47.8215C87.9057 47.8052 87.8994 47.7896 87.888 47.7779L87.2565 47.1446H87.9665C87.9828 47.1446 87.9984 47.1381 88.0099 47.1266C88.0214 47.1151 88.0278 47.0994 88.0278 47.0831C88.0269 47.0675 88.02 47.0528 88.0086 47.042C87.9972 47.0313 87.9822 47.0253 87.9665 47.0253Z" fill="#6C63FF"/>
<path d="M90.5417 47.0253H89.8317L90.4632 46.3933C90.4745 46.3816 90.4809 46.3659 90.4809 46.3496C90.4809 46.3333 90.4745 46.3177 90.4632 46.306C90.4575 46.3002 90.4507 46.2956 90.4433 46.2925C90.4358 46.2894 90.4278 46.2878 90.4197 46.2878C90.4116 46.2878 90.4036 46.2894 90.3961 46.2925C90.3886 46.2956 90.3819 46.3002 90.3762 46.306L89.7447 46.9392V46.226C89.7447 46.2097 89.7382 46.1941 89.7267 46.1826C89.7152 46.171 89.6996 46.1646 89.6833 46.1646C89.6672 46.1649 89.6518 46.1714 89.6403 46.1829C89.6289 46.1944 89.6223 46.2098 89.622 46.226V46.9392L88.9917 46.3023C88.986 46.2965 88.9793 46.2919 88.9718 46.2888C88.9643 46.2857 88.9563 46.2841 88.9482 46.2841C88.9401 46.2841 88.9321 46.2857 88.9246 46.2888C88.9172 46.2919 88.9104 46.2965 88.9047 46.3023C88.8934 46.314 88.887 46.3296 88.887 46.3459C88.887 46.3622 88.8934 46.3779 88.9047 46.3896L89.5362 47.0216H88.825C88.8088 47.0219 88.7934 47.0285 88.782 47.04C88.7705 47.0515 88.764 47.0669 88.7637 47.0831C88.7637 47.0994 88.7701 47.1151 88.7816 47.1266C88.7931 47.1381 88.8087 47.1446 88.825 47.1446H89.5362L88.9047 47.7779C88.8934 47.7896 88.887 47.8052 88.887 47.8215C88.887 47.8378 88.8934 47.8535 88.9047 47.8652C88.9165 47.8763 88.9321 47.8824 88.9482 47.8824C88.9644 47.8824 88.9799 47.8763 88.9917 47.8652L89.622 47.2319V47.9439C89.622 47.9602 89.6285 47.9758 89.64 47.9874C89.6515 47.9989 89.6671 48.0054 89.6833 48.0054C89.6996 48.0054 89.7152 47.9989 89.7267 47.9874C89.7382 47.9758 89.7447 47.9602 89.7447 47.9439V47.2319L90.3762 47.8652C90.388 47.8763 90.4035 47.8824 90.4197 47.8824C90.4359 47.8824 90.4514 47.8763 90.4632 47.8652C90.4745 47.8535 90.4809 47.8378 90.4809 47.8215C90.4809 47.8052 90.4745 47.7896 90.4632 47.7779L89.8317 47.1446H90.5417C90.558 47.1446 90.5736 47.1381 90.5851 47.1266C90.5966 47.1151 90.603 47.0994 90.603 47.0831C90.6021 47.0675 90.5952 47.0528 90.5838 47.042C90.5724 47.0313 90.5574 47.0253 90.5417 47.0253Z" fill="#6C63FF"/>
<path d="M93.1169 47.0253H92.4069L93.0384 46.3933C93.0497 46.3816 93.056 46.3659 93.056 46.3496C93.056 46.3333 93.0497 46.3177 93.0384 46.306C93.0327 46.3002 93.0259 46.2956 93.0184 46.2925C93.011 46.2894 93.003 46.2878 92.9949 46.2878C92.9868 46.2878 92.9788 46.2894 92.9713 46.2925C92.9638 46.2956 92.957 46.3002 92.9513 46.306L92.3198 46.9392V46.226C92.3198 46.2097 92.3134 46.1941 92.3019 46.1826C92.2904 46.171 92.2748 46.1646 92.2585 46.1646C92.2424 46.1649 92.2269 46.1714 92.2155 46.1829C92.2041 46.1944 92.1975 46.2098 92.1972 46.226V46.9392L91.5669 46.3023C91.5612 46.2965 91.5545 46.2919 91.547 46.2888C91.5395 46.2857 91.5315 46.2841 91.5234 46.2841C91.5153 46.2841 91.5073 46.2857 91.4998 46.2888C91.4924 46.2919 91.4856 46.2965 91.4799 46.3023C91.4686 46.314 91.4622 46.3296 91.4622 46.3459C91.4622 46.3622 91.4686 46.3779 91.4799 46.3896L92.1114 47.0216H91.4002C91.384 47.0219 91.3686 47.0285 91.3572 47.04C91.3457 47.0515 91.3392 47.0669 91.3389 47.0831C91.3389 47.0994 91.3453 47.1151 91.3568 47.1266C91.3683 47.1381 91.3839 47.1446 91.4002 47.1446H92.1114L91.4799 47.7779C91.4686 47.7896 91.4622 47.8052 91.4622 47.8215C91.4622 47.8378 91.4686 47.8535 91.4799 47.8652C91.4917 47.8763 91.5072 47.8824 91.5234 47.8824C91.5396 47.8824 91.5551 47.8763 91.5669 47.8652L92.1972 47.2319V47.9439C92.1972 47.9602 92.2037 47.9758 92.2152 47.9874C92.2267 47.9989 92.2423 48.0054 92.2585 48.0054C92.2748 48.0054 92.2904 47.9989 92.3019 47.9874C92.3134 47.9758 92.3198 47.9602 92.3198 47.9439V47.2319L92.9513 47.8652C92.9631 47.8763 92.9787 47.8824 92.9949 47.8824C93.011 47.8824 93.0266 47.8763 93.0384 47.8652C93.0497 47.8535 93.056 47.8378 93.056 47.8215C93.056 47.8052 93.0497 47.7896 93.0384 47.7779L92.4069 47.1446H93.1169C93.1331 47.1446 93.1487 47.1381 93.1602 47.1266C93.1717 47.1151 93.1782 47.0994 93.1782 47.0831C93.1772 47.0675 93.1704 47.0528 93.159 47.042C93.1476 47.0313 93.1325 47.0253 93.1169 47.0253Z" fill="#6C63FF"/>
<path d="M112.858 61.9842C112.854 61.8356 112.836 61.6877 112.802 61.5428C112.692 61.1271 112.443 60.6242 112.034 60.4988C111.611 60.3689 111.202 60.1959 110.815 59.9823C110.741 58.6641 111.043 57.3151 110.714 56.0375C110.591 55.5702 110.389 55.1226 110.335 54.6443C110.268 54.0491 110.43 53.4146 110.193 52.8662C110.007 52.4333 109.597 52.1284 109.157 51.9685C108.717 51.8086 108.242 51.7656 107.775 51.7226C107.186 51.6746 105.281 51.4484 104.616 51.9759C104.57 52.0116 104.529 52.0529 104.493 52.0989C104.479 52.1191 104.466 52.1405 104.454 52.1628L104.448 52.1726C104.435 52.1983 104.424 52.225 104.415 52.2526C104.406 52.2827 104.399 52.3136 104.394 52.3448C104.394 52.3546 104.394 52.3645 104.394 52.3743C104.394 52.3841 104.394 52.4173 104.394 52.4395V52.4727C104.394 52.4948 104.394 52.5169 104.394 52.5403C104.394 52.5637 104.394 52.5575 104.394 52.5661C104.403 52.6768 104.419 52.7875 104.419 52.8969C104.42 52.9514 104.415 53.0059 104.404 53.0592C104.363 53.2043 104.294 53.3397 104.2 53.4576L104.178 53.4896C104.165 53.5093 104.151 53.5277 104.139 53.5474C104.127 53.5671 104.117 53.5818 104.107 53.5991C104.097 53.6163 104.088 53.6273 104.079 53.6433C104.067 53.6636 104.056 53.6845 104.047 53.706C104.047 53.7183 104.034 53.7294 104.029 53.7417C104.013 53.775 104.001 53.8095 103.992 53.845C103.963 53.9518 103.961 54.0641 103.984 54.1721C104.018 54.31 104.074 54.4411 104.152 54.5594C104.183 54.6099 104.216 54.659 104.251 54.7082L104.336 54.825C104.32 54.9391 104.312 55.0541 104.311 55.1694C104.311 55.5544 104.398 55.9344 104.566 56.2808C104.734 56.6271 104.978 56.9308 105.279 57.1688C105.328 57.6881 105.323 58.2111 105.263 58.7293C105.252 58.8375 105.239 58.9469 105.224 59.0551C105.21 59.1633 105.198 59.2347 105.184 59.3244C105.004 59.3502 104.821 59.3364 104.648 59.2839C104.568 59.248 104.486 59.2164 104.403 59.1892C104.046 59.0994 103.682 59.456 103.328 59.3478C103.328 59.365 103.319 59.381 103.313 59.397C103.239 59.351 103.154 59.326 103.067 59.3244C102.858 59.3146 102.687 59.1621 102.535 59.0182L102.068 58.5768C102.037 58.5498 102.01 58.5192 101.987 58.4858C101.962 58.438 101.943 58.3871 101.931 58.3345C101.852 58.08 101.662 57.8771 101.478 57.684C101.443 57.64 101.397 57.6064 101.344 57.5869C101.324 57.5838 101.303 57.5838 101.283 57.5869C101.271 57.5697 101.257 57.5533 101.243 57.5377C101.211 57.5012 101.177 57.4667 101.141 57.4344C100.918 57.2278 100.896 57.0508 100.702 56.8196C100.533 56.5991 100.38 56.3669 100.243 56.1248C100.227 55.9957 100.205 55.8629 100.178 55.7289C100.116 55.422 100.027 55.1215 99.9097 54.8312L99.6645 54.2864L99.6363 54.3147C99.4585 54.0491 99.2684 53.904 99.0979 53.9385C98.8122 53.9975 98.6712 54.5533 98.7166 55.28L98.8147 56.0178C98.8147 56.0363 98.8233 56.0547 98.8282 56.0732C98.8105 56.1606 98.8015 56.2496 98.8012 56.3388C98.8012 56.4421 98.8968 56.5183 98.9471 56.6105C99.0276 56.7355 99.0702 56.8811 99.0697 57.0299C99.0636 57.0827 99.0477 57.1331 99.0452 57.1848C99.0519 57.3003 99.0919 57.4114 99.1605 57.5045L99.7736 58.5374L99.8962 58.7539L99.9036 58.7637C99.9423 58.8392 99.9987 58.9042 100.068 58.9531C100.092 59.2117 100.16 59.4642 100.27 59.6995C100.291 59.7462 100.314 59.7905 100.339 59.8347C100.504 60.1065 100.698 60.3593 100.918 60.5885L101.21 60.9169C101.498 61.239 101.786 61.5624 102.099 61.86C102.21 61.9794 102.346 62.0744 102.496 62.1392C102.569 62.1686 102.649 62.1781 102.728 62.1667C102.806 62.1553 102.88 62.1233 102.942 62.074C102.942 62.2265 102.942 62.3789 102.942 62.5314C102.988 62.5342 103.032 62.5492 103.07 62.5747C103.107 62.6003 103.138 62.6355 103.157 62.6767C103.177 62.7179 103.186 62.7637 103.182 62.8093C103.178 62.8549 103.162 62.8986 103.136 62.936C102.878 63.5988 102.618 64.2677 102.229 64.8617C102.504 65.025 102.759 65.2203 102.989 65.4433C103.138 65.6091 103.271 65.789 103.385 65.9807C103.396 66.0717 103.404 66.1614 103.409 66.2512C103.5 67.717 102.935 69.1717 102.428 70.5686C102.282 70.9646 102.123 71.379 102.135 71.7909C102.039 71.8503 101.947 71.9165 101.861 71.9889C101.961 72.252 101.922 72.4869 101.911 72.7685C101.907 72.9373 101.873 73.104 101.809 73.2604C101.756 73.3687 101.697 73.4742 101.633 73.5764C101.315 74.1383 101.245 74.8061 101.181 75.448C101.143 75.8353 101.293 76.3087 101.118 76.6555C100.815 77.2507 100.546 77.8852 100.504 78.5467C100.503 78.6956 100.484 78.8438 100.448 78.9882C100.41 79.1112 100.343 79.2157 100.308 79.3362C100.273 79.4976 100.265 79.6639 100.284 79.8281C100.307 80.4175 100.22 81.0061 100.026 81.5631C99.8729 82.0021 99.7037 82.4719 99.8239 82.9232C99.528 83.2348 99.3453 83.6372 99.3052 84.0655C99.302 84.1751 99.2889 84.2842 99.2659 84.3914C99.2285 84.501 99.1791 84.6061 99.1188 84.705C98.8719 85.1558 98.7564 85.6671 98.7853 86.1806C98.4174 86.681 98.2334 87.2983 98.1243 87.912C98.0152 88.5256 97.9674 89.1502 97.8276 89.7565C97.6412 90.5582 97.304 91.3686 97.2377 92.19C96.8404 92.4445 96.6688 92.9376 96.5927 93.4037C96.5167 93.8697 96.5045 94.3591 96.3095 94.7895C96.2089 95.0133 96.0642 95.2138 95.9686 95.4425C95.9015 95.6246 95.8522 95.8128 95.8214 96.0045C95.7626 96.3045 95.7111 96.639 95.7834 96.9267C95.6794 97.0372 95.558 97.1298 95.4241 97.2009C95.4438 97.1247 95.4597 97.0485 95.4732 96.971C95.1568 97.2587 94.5829 97.1579 94.3303 97.5034C94.2545 97.6148 94.2249 97.7514 94.2478 97.8843C94.2707 98.0172 94.3443 98.136 94.453 98.2154C94.532 98.2637 94.6175 98.3006 94.7068 98.3249C95.3199 98.5216 95.9502 98.7196 96.5805 98.6151C96.655 98.607 96.7271 98.584 96.7926 98.5474C96.8746 98.4869 96.9421 98.4088 96.99 98.3187C97.0845 98.1687 97.1789 98.0187 97.2721 97.8686C97.4979 97.9362 97.7277 97.99 97.96 98.0297C97.9833 98.2265 98.0005 98.4232 98.009 98.62C98.1317 98.6446 98.296 98.6519 98.3536 98.5376C98.3711 98.4943 98.3782 98.4476 98.3745 98.4011C98.3745 98.3138 98.3867 98.1982 98.3941 98.0802H98.4186C98.7927 98.0953 99.165 98.0198 99.5038 97.86C99.3726 96.7705 99.8055 95.7056 100.181 94.6752C100.577 93.5906 100.916 92.4863 101.259 91.3821C101.504 90.6049 101.775 89.8524 102.015 89.074C102.318 88.0903 102.621 87.1065 102.926 86.1228C103.059 85.6899 103.192 85.262 103.344 84.8316C103.664 83.9607 104.044 83.1131 104.481 82.2948C104.604 82.0624 104.726 81.8324 104.827 81.5914C104.95 81.2975 105.037 80.9901 105.135 80.6864C105.348 80.0632 105.606 79.4558 105.905 78.8689C105.913 78.8529 105.92 78.8382 105.928 78.8234C106.027 79.2304 106.127 79.6436 106.193 80.0531C106.283 80.5552 106.29 81.0686 106.214 81.573C106.155 81.9161 106.043 82.2554 106.057 82.6034C106.075 83.0842 106.332 83.5208 106.458 83.9844C106.539 84.3313 106.585 84.6856 106.595 85.0419C106.629 85.5952 106.929 86.2162 106.718 86.729C106.062 88.3534 106.379 90.1881 106.005 91.8937C105.813 92.7692 105.223 93.5918 105.27 94.487C105.302 95.1224 105.358 95.7561 105.436 96.3881C105.455 96.5875 105.507 96.7824 105.59 96.9648C105.639 97.0608 105.695 97.1529 105.758 97.2403C105.704 97.2612 105.658 97.3165 105.619 97.4333C105.519 97.7408 105.619 98.122 105.891 98.2941C106.002 98.3536 106.122 98.3951 106.246 98.4171C106.412 98.4646 106.585 98.4886 106.758 98.4884C106.812 98.4855 106.866 98.4789 106.919 98.4687C107.108 98.5486 107.302 98.6184 107.499 98.6778C107.499 98.7282 107.509 98.7786 107.515 98.829C107.515 98.8554 107.521 98.8814 107.532 98.9053C107.543 98.9292 107.559 98.9506 107.579 98.968C107.609 98.9823 107.643 98.9882 107.677 98.9852H108.343C108.343 98.9299 108.343 98.8733 108.343 98.818C108.419 98.8259 108.496 98.8178 108.569 98.7941C108.641 98.7703 108.709 98.7316 108.766 98.6802C108.825 98.605 108.866 98.5177 108.888 98.4245C109.07 97.8072 109.25 97.1895 109.429 96.5713C109.644 95.8881 109.733 95.1715 109.693 94.4563C109.456 92.19 109.976 89.9163 109.807 87.6439C109.705 86.278 109.775 84.9048 110.015 83.5564C110.07 83.2515 110.138 82.9416 110.162 82.6379C110.216 82.0648 110.15 81.4857 110.19 80.9163C110.204 80.7171 110.231 80.5191 110.255 80.3212C110.423 79.0924 110.512 77.8539 110.519 76.6137C110.515 76.2027 110.49 75.7923 110.443 75.384C110.571 75.3514 110.687 75.2832 110.778 75.1873C110.887 75.0446 110.859 74.8442 110.858 74.6622C110.858 74.2269 111.04 73.8162 111.187 73.4055C111.376 72.839 111.531 72.2616 111.651 71.6765C111.778 71.205 111.847 70.7199 111.857 70.2317C111.857 70.1825 111.854 70.1333 111.85 70.0841C111.896 70.052 111.934 70.01 111.962 69.9611C111.994 69.8891 112.014 69.8122 112.021 69.7336C112.065 69.4201 112.111 69.1053 112.155 68.7905C112.188 68.565 112.22 68.34 112.252 68.1154L112.642 65.3867C112.675 65.1494 112.709 64.9133 112.742 64.6772L112.844 63.9714C112.855 63.8878 112.867 63.8041 112.876 63.7254C113.175 63.2237 112.889 62.5548 112.858 61.9842ZM109.604 72.2004C109.46 71.8561 109.325 71.5031 109.359 71.1318H109.346C109.378 71.0175 109.372 70.8958 109.33 70.785C109.292 70.6952 109.225 70.619 109.185 70.5292C109.141 70.4197 109.119 70.3029 109.119 70.1849C109.088 69.437 109.147 68.6882 109.294 67.9543C109.31 67.8682 109.327 67.7809 109.343 67.6948C109.395 67.665 109.442 67.6282 109.483 67.5854C109.547 67.5117 109.601 67.4288 109.641 67.3395C109.78 67.0603 109.906 66.7763 110.022 66.4873C110.061 66.3938 110.116 66.2856 110.21 66.2623C110.19 66.9816 110.264 67.7157 109.972 68.365C109.917 68.4697 109.876 68.5814 109.85 68.697C109.823 68.8802 109.899 69.0659 109.872 69.2479C109.858 69.3426 109.818 69.4299 109.802 69.5234C109.79 69.5693 109.79 69.6175 109.802 69.6633C109.815 69.7091 109.839 69.7508 109.873 69.7841C109.889 69.7955 109.907 69.8046 109.926 69.8111C109.918 69.8603 109.912 69.9107 109.907 69.9587C109.897 70.0595 109.893 70.1542 109.886 70.2132C109.858 70.514 109.847 70.8162 109.853 71.1183C109.853 71.4441 109.866 71.77 109.861 72.102C109.865 72.1973 109.849 72.2925 109.814 72.3811C109.79 72.4269 109.758 72.4684 109.721 72.5041C109.685 72.3934 109.646 72.2963 109.604 72.2004Z" fill="url(#paint0_linear)"/>
<path d="M99.9247 57.9324C100.299 57.8555 100.426 56.9319 100.209 55.8694C99.992 54.8069 99.5126 54.0079 99.1385 54.0848C98.7643 54.1617 98.6369 55.0853 98.854 56.1478C99.0711 57.2103 99.5505 58.0093 99.9247 57.9324Z" fill="#FBBEBE"/>
<path d="M105.639 97.4568C105.538 97.7618 105.639 98.143 105.911 98.309C106.021 98.3679 106.14 98.4094 106.263 98.4319C106.429 98.4791 106.601 98.5026 106.774 98.502C106.986 98.4922 107.19 98.4086 107.402 98.3791C107.427 98.3729 107.452 98.3764 107.474 98.3889C107.485 98.4003 107.493 98.414 107.498 98.4289C107.502 98.4438 107.504 98.4595 107.501 98.475C107.504 98.5959 107.513 98.7166 107.528 98.8365C107.529 98.8629 107.534 98.8889 107.545 98.9129C107.556 98.9368 107.572 98.9582 107.592 98.9755C107.623 98.9898 107.657 98.9957 107.69 98.9927H108.355C108.37 98.4071 108.306 97.8222 108.165 97.2539C108.156 97.2104 108.139 97.1688 108.116 97.1309C108.059 97.069 107.985 97.026 107.904 97.008C107.741 96.9402 107.566 96.9095 107.39 96.9182C107.175 96.9465 106.996 97.0854 106.813 97.201C106.631 97.3166 106.382 97.4187 106.16 97.3596C105.938 97.3006 105.753 97.1149 105.639 97.4568Z" fill="#3F3D56"/>
<path d="M95.8808 96.9169C95.694 97.1176 95.4648 97.2738 95.2101 97.3744L95.0973 97.4285C95.0817 97.4344 95.0683 97.4452 95.0592 97.4592C95.0571 97.4688 95.0571 97.4787 95.0592 97.4883C95.0613 97.4978 95.0655 97.5068 95.0715 97.5146C95.1654 97.6601 95.3041 97.771 95.4666 97.8303C95.629 97.8895 95.8064 97.894 95.9716 97.8429C96.0446 97.8246 96.1122 97.7892 96.169 97.7396C96.2625 97.6284 96.316 97.489 96.321 97.3436C96.3582 97.1937 96.3518 97.0363 96.3026 96.8899C96.1322 96.505 96.0697 96.6796 95.8808 96.9169Z" fill="#FBBEBE"/>
<path d="M98.4288 98.4319C98.4326 98.4784 98.4254 98.5252 98.408 98.5684C98.3503 98.6815 98.1897 98.6754 98.0646 98.6508C98.0457 98.2336 97.9952 97.8184 97.9138 97.4088C97.6759 97.3978 97.5042 97.624 97.3767 97.8269L97.0481 98.3495C97.0005 98.4395 96.9335 98.5177 96.8519 98.5782C96.7862 98.6143 96.7141 98.6372 96.6397 98.6459C96.0119 98.7504 95.3779 98.5524 94.7722 98.3557C94.683 98.3317 94.5975 98.2952 94.5184 98.2475C94.4103 98.1679 94.3371 98.0494 94.3142 97.9169C94.2914 97.7843 94.3206 97.6481 94.3957 97.5367C94.6496 97.1924 95.2198 97.2908 95.5361 97.0055C95.5031 97.2062 95.4488 97.4028 95.3743 97.592C95.7973 97.5281 96.0818 97.1395 96.4227 96.8801C96.5083 96.8072 96.6115 96.758 96.7219 96.7374C96.8045 96.7305 96.8877 96.7392 96.9671 96.7632C97.3602 96.8625 97.7279 97.044 98.0462 97.2957C98.175 97.3978 98.3761 97.5416 98.4325 97.699C98.4926 97.8872 98.4288 98.2315 98.4288 98.4319Z" fill="#3F3D56"/>
<path d="M106.863 57.8599C108.263 57.8599 109.397 56.7225 109.397 55.3194C109.397 53.9164 108.263 52.7789 106.863 52.7789C105.464 52.7789 104.33 53.9164 104.33 55.3194C104.33 56.7225 105.464 57.8599 106.863 57.8599Z" fill="#FBBEBE"/>
<path d="M111.854 70.3191C111.844 70.8048 111.775 71.2874 111.65 71.7566C111.53 72.3392 111.375 72.9141 111.186 73.4781C111.04 73.8876 110.858 74.2983 110.859 74.7324C110.859 74.9132 110.888 75.1136 110.778 75.2562C110.68 75.3564 110.556 75.4274 110.42 75.4616C110.352 75.4796 110.289 75.5134 110.237 75.5602C110.185 75.607 110.144 75.6654 110.118 75.7309C110.003 75.5584 109.917 75.3681 109.863 75.1677C109.643 74.4922 109.439 73.813 109.25 73.1301C109.233 73.0908 109.225 73.0479 109.228 73.005C109.231 72.9622 109.245 72.9207 109.267 72.8842C109.298 72.8571 109.335 72.8366 109.374 72.8239C109.499 72.7725 109.615 72.6983 109.713 72.6051C109.76 72.5638 109.798 72.5141 109.826 72.4587C109.862 72.3706 109.878 72.2758 109.874 72.1808C109.874 71.8549 109.874 71.5303 109.866 71.2044C109.86 70.9036 109.872 70.6027 109.9 70.3031C109.9 70.2441 109.911 70.1494 109.921 70.0486C109.939 69.8555 109.976 69.6317 110.08 69.5567C110.236 69.4522 110.702 69.5923 110.878 69.6169C111.182 69.6587 111.491 69.7079 111.788 69.7657C111.831 69.947 111.854 70.1327 111.854 70.3191Z" fill="#0088F0"/>
<path d="M101.626 58.1637C101.528 58.3604 101.292 58.4551 101.111 58.5793L100.489 59.0072C100.448 59.0448 100.399 59.0735 100.346 59.0917C100.293 59.1098 100.237 59.1171 100.181 59.113C100.131 59.0942 100.084 59.0656 100.045 59.0286C100.006 58.9917 99.9741 58.9472 99.9521 58.8978C99.9525 58.8945 99.9525 58.8912 99.9521 58.888L99.8233 58.6715L99.2102 57.6411C99.142 57.5488 99.1024 57.4385 99.0962 57.3238C99.0962 57.2709 99.1146 57.2218 99.1195 57.1689C99.1211 57.0204 99.0784 56.8748 98.9968 56.7508C98.9478 56.6586 98.8497 56.5823 98.8522 56.479C98.8475 56.3433 98.8708 56.2081 98.9208 56.0819C98.9852 55.9651 99.0774 55.8662 99.1894 55.7941C99.247 55.7523 99.3059 55.713 99.3672 55.6711C99.3997 55.6489 99.4358 55.6322 99.4739 55.622C99.5756 55.6011 99.6762 55.6859 99.7792 55.6896C100.222 55.9872 100.392 56.5504 100.741 56.9562C100.937 57.1873 100.956 57.3644 101.178 57.571C101.214 57.603 101.248 57.6374 101.281 57.673C101.325 57.721 101.362 57.7748 101.392 57.8329C101.432 57.9387 101.676 58.0629 101.626 58.1637Z" fill="#3F3D56"/>
<path d="M105.974 57.8612C106.157 58.2485 106.299 58.674 106.246 59.0995C106.235 59.2147 106.199 59.3261 106.14 59.4253C105.963 59.6971 105.593 59.7463 105.27 59.7623C105.202 59.7565 105.134 59.7645 105.069 59.7856C105.004 59.8067 104.944 59.8406 104.893 59.8852C104.849 59.948 104.828 60.0234 104.833 60.0995C104.837 60.1756 104.866 60.2482 104.916 60.3058C105.019 60.4167 105.148 60.501 105.291 60.5517C105.801 60.7767 106.352 60.9624 106.906 60.9108C107.163 60.8862 107.414 60.8112 107.67 60.7731C107.949 60.7427 108.23 60.7271 108.511 60.7263C108.845 60.714 109.177 60.6808 109.509 60.6476L110.39 60.5603C110.438 60.561 110.485 60.5439 110.521 60.5124C110.586 60.4361 110.503 60.3242 110.422 60.2664C109.954 59.9197 109.36 59.6811 109.094 59.1597C108.971 58.9138 108.933 58.6211 108.842 58.3555C108.751 58.0899 108.607 57.8501 108.55 57.5796C108.52 57.3423 108.507 57.1031 108.51 56.8639C108.513 56.6227 108.425 56.3892 108.265 56.2097C108.089 56.0462 107.835 56.0044 107.598 55.9945C107.011 55.9687 106.387 56.1089 105.972 56.5233C105.86 56.6352 105.764 56.7692 105.649 56.8701C105.534 56.9709 105.377 57.0004 105.453 57.1332C105.529 57.266 105.679 57.3484 105.759 57.4652C105.841 57.5913 105.913 57.7237 105.974 57.8612Z" fill="#FBBEBE"/>
<path d="M110.968 61.4383C110.813 62.3852 110.562 63.3135 110.218 64.2087C110.045 64.613 109.897 65.0278 109.776 65.4507C109.682 65.8319 109.7 66.2402 109.613 66.6226C109.505 67.0985 109.397 67.5756 109.31 68.0552C109.164 68.7875 109.106 69.5347 109.136 70.2809C109.136 70.3984 109.159 70.5148 109.202 70.624C109.243 70.7125 109.308 70.7887 109.346 70.8797C109.374 70.9597 109.386 71.0446 109.38 71.1293C109.374 71.2139 109.351 71.2964 109.311 71.3716C109.249 71.5124 109.163 71.6419 109.059 71.7553C107.916 72.0971 106.693 71.9852 105.503 72.0578C104.405 72.1242 103.296 72.3504 102.214 72.1623C102.091 71.6704 102.296 71.1552 102.472 70.6756C102.98 69.2824 103.543 67.8314 103.452 66.3717C103.443 66.2015 103.424 66.0319 103.395 65.8639C103.217 64.8297 103.411 63.7587 103.721 62.7565C103.914 62.1318 103.905 61.4666 103.861 60.8161C103.839 60.6048 103.836 60.3921 103.852 60.1803C103.87 59.9641 103.95 59.7577 104.083 59.5864C104.083 59.5778 104.094 59.5692 104.1 59.5606C104.106 59.552 104.154 59.5532 104.192 59.5606C104.202 59.5647 104.212 59.5668 104.223 59.5668C104.233 59.5668 104.244 59.5647 104.253 59.5606L104.267 59.552C104.272 59.5483 104.278 59.5463 104.284 59.5463C104.291 59.5463 104.297 59.5483 104.302 59.552C104.33 59.5692 104.346 59.6282 104.408 59.6393C104.498 59.653 104.59 59.6616 104.681 59.6651C104.791 59.6684 104.901 59.684 105.007 59.7118H105.022C105.182 59.7388 105.345 59.7248 105.498 59.6712C105.599 59.6458 105.697 59.6078 105.79 59.5581C105.817 59.5286 105.986 59.5015 106.02 59.4806C106.132 59.413 106.107 59.0957 106.131 58.9654C106.143 58.8347 106.174 58.7064 106.223 58.5842C106.278 58.494 106.355 58.419 106.447 58.3656C106.538 58.3122 106.642 58.2821 106.747 58.278C106.959 58.273 107.17 58.2919 107.376 58.3346C107.834 58.3997 108.302 58.3887 108.751 58.4944C108.977 58.5473 109.223 58.6272 109.43 58.524C109.487 58.5375 109.495 58.5867 109.495 58.6469C109.49 58.7042 109.479 58.7607 109.461 58.8154C109.383 59.1548 109.649 59.4671 109.894 59.713C109.998 59.829 110.12 59.9267 110.256 60.002C110.378 60.0586 110.501 60.0819 110.624 60.1434C110.723 60.1966 110.807 60.274 110.869 60.3685C110.939 60.4768 110.987 60.5986 111.009 60.7263C111.035 60.9642 111.021 61.2049 110.968 61.4383Z" fill="#0088F0"/>
<path opacity="0.1" d="M110.968 61.4384C110.814 62.3852 110.562 63.3136 110.218 64.2088C110.045 64.6131 109.897 65.0279 109.777 65.4508C109.682 65.832 109.701 66.2402 109.613 66.6227C109.506 67.0986 109.398 67.5757 109.311 68.0552C109.285 68.07 109.258 68.0835 109.231 68.0958C109.078 68.1689 108.917 68.221 108.75 68.2508C108.451 68.287 108.149 68.2771 107.853 68.2212L106.103 67.9864C105.404 67.8917 104.659 67.7773 104.141 67.3027C103.853 67.042 103.664 66.6977 103.457 66.3657C103.447 66.1954 103.428 66.0259 103.399 65.8578C103.221 64.8237 103.415 63.7526 103.725 62.7504C103.918 62.1258 103.909 61.4605 103.865 60.81C103.843 60.5988 103.84 60.386 103.856 60.1743C103.874 59.958 103.954 59.7517 104.087 59.5803C104.123 59.5698 104.159 59.5616 104.196 59.5557C104.221 59.5507 104.246 59.5474 104.271 59.5459H104.306C104.348 59.5461 104.389 59.551 104.429 59.5607C104.512 59.5873 104.594 59.6189 104.674 59.6553H104.689C104.794 59.6901 104.904 59.7059 105.015 59.7021C105.177 59.7021 105.344 59.6762 105.506 59.6652C105.706 59.6339 105.91 59.6707 106.087 59.7697C106.201 59.8616 106.309 59.9606 106.411 60.066C106.533 60.1627 106.671 60.2379 106.819 60.2886C107.874 60.6926 109.045 60.6679 110.083 60.2198C110.183 60.1629 110.296 60.134 110.411 60.1361C110.495 60.1528 110.575 60.1871 110.646 60.237C110.72 60.28 110.792 60.3218 110.867 60.3599C110.937 60.4683 110.985 60.5901 111.006 60.7178C111.035 60.9584 111.022 61.2021 110.968 61.4384Z" fill="black"/>
<path d="M112.036 60.6242C111.548 60.4747 111.079 60.2683 110.638 60.0094C110.567 59.9599 110.487 59.9256 110.403 59.9086C110.288 59.9072 110.174 59.936 110.074 59.9922C109.037 60.4403 107.866 60.465 106.811 60.061C106.664 60.0099 106.526 59.9347 106.403 59.8385C106.301 59.7333 106.193 59.6343 106.079 59.5421C105.676 59.2802 105.118 59.5876 104.666 59.4191C104.586 59.3833 104.504 59.3517 104.421 59.3245C104.064 59.2347 103.701 59.5913 103.351 59.4831C103.22 59.8387 103.124 60.206 103.062 60.58C103.013 61.0094 102.986 61.4412 102.983 61.8736C102.983 62.133 102.97 62.3925 102.983 62.652C103.026 62.6591 103.067 62.6751 103.104 62.699C103.141 62.7229 103.172 62.7542 103.196 62.7909C103.212 62.8338 103.219 62.8796 103.215 62.9253C103.212 62.9709 103.199 63.0153 103.176 63.0553C102.92 63.7156 102.66 64.3833 102.271 64.9748C102.545 65.1385 102.8 65.3333 103.029 65.5552C103.458 66.0102 103.669 66.6484 104.133 67.069C104.655 67.5424 105.4 67.658 106.095 67.7514L107.845 67.9863C108.141 68.0419 108.444 68.0523 108.744 68.017C108.91 67.9867 109.071 67.9341 109.223 67.8609C109.322 67.8192 109.413 67.7591 109.49 67.6838C109.555 67.6102 109.608 67.5273 109.649 67.4379C109.787 67.16 109.913 66.8759 110.03 66.5881C110.07 66.4861 110.132 66.3668 110.242 66.3582C110.892 65.7704 111.505 65.1679 112.155 64.5801C112.416 64.363 112.65 64.1153 112.853 63.8423C113.175 63.3639 112.882 62.6864 112.853 62.1084C112.849 61.9606 112.831 61.8135 112.798 61.6694C112.692 61.2501 112.444 60.7484 112.036 60.6242Z" fill="#0088F0"/>
<path opacity="0.1" d="M101.626 58.1637C101.528 58.3604 101.292 58.4551 101.111 58.5793L100.489 59.0072C100.448 59.0448 100.399 59.0735 100.346 59.0917C100.293 59.1098 100.237 59.1171 100.181 59.113C100.131 59.0942 100.084 59.0656 100.045 59.0286C100.006 58.9917 99.9741 58.9472 99.9521 58.8978C99.9521 58.8695 99.9521 58.8388 99.9521 58.8093C99.9474 58.7097 99.9607 58.6101 99.9913 58.5154C100.052 58.3763 100.147 58.2546 100.266 58.1612C100.497 57.942 100.771 57.7743 101.072 57.6693C101.118 57.6511 101.169 57.646 101.219 57.6546C101.238 57.6596 101.256 57.6674 101.273 57.6779C101.317 57.7259 101.354 57.7797 101.383 57.8378C101.432 57.9386 101.676 58.0628 101.626 58.1637Z" fill="black"/>
<path d="M103.089 59.4598C102.881 59.45 102.711 59.2987 102.558 59.1548L102.094 58.722C102.063 58.6956 102.035 58.665 102.013 58.631C101.988 58.5832 101.969 58.5324 101.956 58.4798C101.858 58.2314 101.703 58.0092 101.505 57.8305C101.471 57.7864 101.424 57.7532 101.371 57.7346C101.322 57.7253 101.27 57.7305 101.223 57.7493C100.923 57.8542 100.648 58.0218 100.417 58.2412C100.298 58.3347 100.204 58.4563 100.143 58.5953C100.112 58.6901 100.099 58.7897 100.104 58.8892C100.106 59.2141 100.179 59.5346 100.317 59.8287C100.338 59.8742 100.361 59.9197 100.386 59.964C100.549 60.2351 100.742 60.4871 100.962 60.7153L101.254 61.0424C101.541 61.3646 101.828 61.6867 102.139 61.9831C102.251 62.1025 102.386 62.1972 102.536 62.261C102.612 62.2919 102.694 62.3013 102.775 62.2883C102.855 62.2753 102.931 62.2403 102.993 62.1872C103.051 62.119 103.096 62.0395 103.123 61.9536C103.311 61.4617 103.49 60.9502 103.501 60.4202C103.504 60.2079 103.495 59.9957 103.474 59.7844C103.456 59.5606 103.298 59.4733 103.089 59.4598Z" fill="#0088F0"/>
<path d="M110.521 76.6752C110.513 77.9121 110.426 79.1473 110.258 80.3728C110.234 80.5708 110.207 80.7688 110.193 80.9667C110.153 81.541 110.219 82.1177 110.165 82.6883C110.137 82.9969 110.073 83.3031 110.019 83.6044C109.779 84.949 109.709 86.3186 109.811 87.6808C109.98 89.9471 109.461 92.2146 109.697 94.4747C109.725 94.9142 109.701 95.3556 109.624 95.7893C109.58 96.0584 109.517 96.3239 109.434 96.5836C109.255 97.1993 109.075 97.8141 108.895 98.4282C108.873 98.5215 108.831 98.609 108.772 98.6839C108.709 98.7382 108.636 98.7784 108.557 98.8019C108.477 98.8255 108.394 98.8318 108.312 98.8204C107.605 98.7983 106.939 98.4921 106.296 98.1933C106.222 98.1641 106.154 98.1225 106.094 98.0703C105.96 97.9314 105.971 97.7125 105.912 97.5293C105.854 97.346 105.694 97.1739 105.603 96.9857C105.529 96.8078 105.484 96.6188 105.47 96.4262C105.388 95.7966 105.332 95.1646 105.303 94.5301C105.256 93.6373 105.845 92.8159 106.039 91.9478C106.407 90.241 106.095 88.4112 106.749 86.7917C106.955 86.2802 106.655 85.6604 106.626 85.1095C106.615 84.7541 106.569 84.4007 106.489 84.0545C106.366 83.5921 106.107 83.1568 106.089 82.6772C106.075 82.3305 106.187 81.9923 106.245 81.6504C106.321 81.1474 106.314 80.635 106.224 80.1343C106.159 79.7211 106.06 79.3079 105.96 78.9046L105.938 78.9501C105.639 79.5357 105.382 80.1418 105.169 80.7638C105.071 81.0651 104.985 81.3725 104.863 81.6652C104.762 81.9111 104.638 82.1362 104.517 82.3673C104.081 83.1826 103.703 84.0269 103.383 84.8943C103.231 85.3198 103.097 85.7551 102.965 86.1818L102.056 89.133C101.811 89.909 101.542 90.6591 101.302 91.4338C100.962 92.5405 100.622 93.6373 100.228 94.7194C99.8597 95.7462 99.4219 96.8099 99.5531 97.8945C99.215 98.0538 98.8437 98.1293 98.4704 98.1146C97.8384 98.0585 97.2183 97.9076 96.631 97.667C96.3968 97.5797 96.154 97.4813 95.9958 97.2882C95.7236 96.955 95.791 96.4668 95.8732 96.0426C95.9041 95.8514 95.9534 95.6636 96.0203 95.4818C96.1135 95.2556 96.2656 95.0552 96.3612 94.8314C96.5537 94.4022 96.566 93.9165 96.642 93.4504C96.7181 92.9844 96.8873 92.4925 97.2846 92.2392C97.352 91.4202 97.688 90.6123 97.8732 89.8118C98.013 89.2056 98.0596 88.5821 98.1699 87.9673C98.2803 87.3525 98.4581 86.7376 98.8284 86.2396C98.7992 85.7261 98.9148 85.2147 99.162 84.764C99.2217 84.665 99.2706 84.5599 99.3079 84.4504C99.3307 84.3436 99.3439 84.235 99.3471 84.1258C99.3877 83.6985 99.5699 83.2971 99.8646 82.9859C99.742 82.537 99.9124 82.0685 100.066 81.6332C100.259 81.0778 100.346 80.4909 100.323 79.9031C100.304 79.7389 100.312 79.5728 100.346 79.4112C100.381 79.2882 100.448 79.1837 100.488 79.0657C100.522 78.9211 100.541 78.773 100.543 78.6242C100.591 77.959 100.859 77.3318 101.156 76.7379C101.332 76.3911 101.183 75.9201 101.22 75.534C101.283 74.8921 101.353 74.2281 101.671 73.6686C101.73 73.5629 101.793 73.462 101.846 73.3526C101.91 73.1963 101.945 73.0296 101.948 72.8607C101.959 72.5791 101.998 72.3455 101.898 72.0836C102.554 71.5363 103.449 71.3826 104.302 71.3457C105.156 71.3089 106.019 71.3863 106.854 71.2043C107.099 71.149 107.345 71.0728 107.603 71.0359C108.191 70.9498 108.787 71.0838 109.367 71.2166C109.326 71.5855 109.461 71.9397 109.612 72.2828C110.201 73.6725 110.51 75.1653 110.521 76.6752Z" fill="#33313F"/>
<path opacity="0.1" d="M107.633 76.9568L106.224 80.1343C106.159 79.7211 106.06 79.3079 105.961 78.9046L105.938 78.9501V78.8837L106.706 77.1904L107.633 76.9568Z" fill="black"/>
<path opacity="0.1" d="M111.855 70.3191C111.774 70.3801 111.677 70.4163 111.576 70.4236C111.421 70.4291 111.265 70.4079 111.117 70.3609L110.014 70.0842C109.979 70.0757 109.945 70.0637 109.913 70.0485C109.931 69.8555 109.968 69.6317 110.072 69.5567C110.228 69.4522 110.694 69.5923 110.871 69.6169C111.175 69.6587 111.484 69.7079 111.781 69.7657C111.827 69.9467 111.852 70.1324 111.855 70.3191Z" fill="black"/>
<path d="M112.788 63.0024C112.811 63.1045 112.844 63.2053 112.864 63.3086C112.897 63.562 112.888 63.8192 112.838 64.0698L112.737 64.7732L112.637 65.4802L112.248 68.2015L112.153 68.8754L112.018 69.8161C112.011 69.8943 111.991 69.9709 111.959 70.0423C111.919 70.1092 111.863 70.1649 111.796 70.2046C111.729 70.2444 111.653 70.2667 111.575 70.2698C111.42 70.2747 111.265 70.2536 111.116 70.2071L110.013 69.9292C109.964 69.9206 109.918 69.9017 109.878 69.8739C109.844 69.8408 109.82 69.7994 109.807 69.7538C109.795 69.7082 109.795 69.6601 109.807 69.6144C109.823 69.5209 109.863 69.4336 109.877 69.3402C109.904 69.1582 109.828 68.9713 109.855 68.7905C109.881 68.6754 109.922 68.5642 109.977 68.4597C110.345 67.6445 110.132 66.6927 110.257 65.8073C110.369 65.1105 110.663 64.4557 111.108 63.9087C111.382 63.5634 111.698 63.2529 112.047 62.984C112.184 62.877 112.403 62.6569 112.576 62.6151C112.798 62.5683 112.751 62.8475 112.788 63.0024Z" fill="#0088F0"/>
<path d="M104.436 52.41C104.355 52.6682 104.481 52.9523 104.424 53.2154C104.361 53.5056 104.089 53.7073 104.012 53.9987C103.889 54.4426 104.264 54.8472 104.539 55.2161C105.557 56.586 105.423 58.4821 105.075 60.1533C104.795 61.494 104.407 62.8099 103.916 64.0882C103.763 64.4854 103.594 64.8888 103.292 65.1863C103.856 65.024 104.456 64.8605 105.021 65.0179C105.737 65.2171 106.355 65.9143 107.081 65.7557C107.518 65.6585 107.824 65.27 108.217 65.0548C108.952 64.6576 109.839 64.9072 110.659 65.0351C110.836 65.0769 111.021 65.0675 111.193 65.008C111.324 64.9373 111.435 64.8345 111.516 64.7092C111.882 64.2382 112.102 63.6693 112.147 63.0738C112.166 62.7772 112.122 62.4799 112.019 62.2016C111.915 61.9233 111.753 61.6702 111.545 61.4592C111.37 61.2944 111.162 61.1616 111.028 60.9673C110.898 60.7404 110.829 60.4838 110.826 60.2221C110.729 58.8695 111.058 57.4886 110.719 56.1802C110.597 55.7141 110.397 55.2678 110.343 54.7906C110.275 54.1967 110.436 53.561 110.201 53.0174C110.015 52.5858 109.607 52.2796 109.167 52.1222C108.727 51.9648 108.256 51.9206 107.789 51.8763C107.117 51.8197 104.717 51.5308 104.436 52.41Z" fill="#33313F"/>
<g opacity="0.1">
<path opacity="0.1" d="M105.075 60.1533C104.796 61.4885 104.41 62.7991 103.922 64.0723C104.006 63.9038 104.078 63.7267 104.145 63.5509C104.637 62.2728 105.024 60.9568 105.304 59.6159C105.653 57.9436 105.787 56.0499 104.769 54.6788C104.524 54.3517 104.209 53.9976 104.22 53.6139C104.129 53.7299 104.059 53.8605 104.011 54C103.889 54.4439 104.264 54.8485 104.539 55.2174C105.556 56.586 105.423 58.4822 105.075 60.1533Z" fill="black"/>
<path opacity="0.1" d="M104.438 53.0913C104.537 52.9687 104.61 52.8279 104.654 52.6769C104.673 52.4942 104.668 52.3098 104.64 52.1284C104.545 52.1997 104.474 52.2978 104.436 52.41C104.364 52.6277 104.447 52.8638 104.438 53.0913Z" fill="black"/>
<path opacity="0.1" d="M111.747 64.1682C111.666 64.2931 111.554 64.3955 111.423 64.4658C111.252 64.5265 111.066 64.5359 110.89 64.4928C110.069 64.3699 109.173 64.1165 108.447 64.5137C108.053 64.7277 107.748 65.1163 107.31 65.2146C106.586 65.377 105.968 64.6797 105.252 64.4768C104.744 64.3354 104.209 64.4522 103.698 64.5998C103.596 64.8171 103.459 65.0158 103.292 65.1876C103.856 65.0253 104.456 64.8617 105.021 65.0191C105.737 65.2183 106.355 65.9156 107.081 65.7569C107.518 65.6598 107.824 65.2712 108.217 65.056C108.952 64.6588 109.839 64.9085 110.659 65.0363C110.836 65.0782 111.021 65.0688 111.193 65.0093C111.324 64.9385 111.435 64.8358 111.516 64.7105C111.739 64.4165 111.91 64.0873 112.024 63.7366C111.942 63.8869 111.849 64.0312 111.747 64.1682Z" fill="black"/>
</g>
</g>
<defs>
<linearGradient id="paint0_linear" x1="94.2482" y1="75.3078" x2="113.01" y2="75.3078" gradientUnits="userSpaceOnUse">
<stop stop-color="#808080" stop-opacity="0.25"/>
<stop offset="0.54" stop-color="#808080" stop-opacity="0.12"/>
<stop offset="1" stop-color="#808080" stop-opacity="0.1"/>
</linearGradient>
<clipPath id="clip0">
<rect width="143" height="99" fill="white"/>
</clipPath>
</defs>
</svg>
