<svg width="186" height="90" viewBox="0 0 186 90" fill="none" xmlns="http://www.w3.org/2000/svg">
<g clip-path="url(#clip0)">
<path d="M146.523 90C168.326 90 186 89.1642 186 88.1332C186 87.1022 168.326 86.2664 146.523 86.2664C124.721 86.2664 107.047 87.1022 107.047 88.1332C107.047 89.1642 124.721 90 146.523 90Z" fill="#D0CDE1"/>
<path d="M146.426 50.3226L149.4 61.7348C149.4 61.7348 149.51 69.7778 150.171 72.9297C150.832 76.0816 153.036 83.6898 153.036 83.6898L155.68 84.1245L155.129 73.4731C155.129 73.4731 155.129 67.0605 154.578 65.6476C154.027 64.2347 152.926 49.7792 152.926 49.7792L146.426 50.3226Z" fill="#FFB8B8"/>
<path opacity="0.1" d="M146.426 50.3226L149.4 61.7348C149.4 61.7348 149.51 69.7778 150.171 72.9297C150.832 76.0816 153.036 83.6898 153.036 83.6898L155.68 84.1245L155.129 73.4731C155.129 73.4731 155.129 67.0605 154.578 65.6476C154.027 64.2347 152.926 49.7792 152.926 49.7792L146.426 50.3226Z" fill="black"/>
<path d="M154.673 2.48938H154.673C151 2.48938 148.023 5.74873 148.023 9.76934V14.8776H149.616L150.538 12.9849L150.307 14.8776H160.543L161.381 13.157L161.172 14.8776H162.324V10.8667C162.324 6.24003 158.898 2.48938 154.673 2.48938Z" fill="#2F2E41"/>
<path d="M143.617 48.5292C143.617 48.5292 142.295 54.0723 144.057 54.6157C145.82 55.1592 145.379 48.5292 145.379 48.5292H143.617Z" fill="#FFB8B8"/>
<path d="M145.82 20.3788L144.938 21.357L145.159 40.16L143.176 49.0725L147.583 49.5073L149.786 31.5737L149.125 22.444L145.82 20.3788Z" fill="#0088F0"/>
<path opacity="0.1" d="M145.82 20.3788L144.938 21.357L145.159 40.16L143.176 49.0725L147.583 49.5073L149.786 31.5737L149.125 22.444L145.82 20.3788Z" fill="#0088F0"/>
<path d="M154.085 14.1638C156.699 14.1638 158.819 12.073 158.819 9.4939C158.819 6.91477 156.699 4.82397 154.085 4.82397C151.471 4.82397 149.352 6.91477 149.352 9.4939C149.352 12.073 151.471 14.1638 154.085 14.1638Z" fill="#FFB8B8"/>
<path d="M151.371 12.2958C151.371 12.2958 152.76 19.3941 152.128 20.1413C151.497 20.8885 158.818 18.7715 158.818 18.7715C158.818 18.7715 156.42 13.9147 157.682 11.175L151.371 12.2958Z" fill="#FFB8B8"/>
<path d="M163.337 43.4208C163.337 43.4208 164.659 48.9639 162.896 49.5073C161.134 50.0508 161.574 43.4208 161.574 43.4208H163.337Z" fill="#FFB8B8"/>
<path d="M153.146 49.0183C153.146 49.0183 151.274 60.1045 151.384 61.7348C151.494 63.3651 151.384 63.5825 151.384 63.5825C151.384 63.5825 149.511 68.3648 148.96 71.082C148.409 73.7992 147.197 77.2772 147.197 77.2772C147.197 77.2772 145.765 80.4291 146.977 80.4291C148.189 80.4291 149.841 79.9944 149.841 79.9944C149.837 78.7389 150.264 77.5191 151.053 76.5341C152.375 74.886 156.341 67.1692 156.341 66.191C156.341 65.2128 157.002 62.3869 157.002 62.3869L159.536 50.3226L153.146 49.0183Z" fill="#FFB8B8"/>
<path d="M145.435 41.6275C145.435 41.6275 143.562 50.9746 145.215 51.192C146.867 51.4094 149.181 49.7791 152.155 51.6268C155.13 53.4745 160.087 53.0397 160.087 53.0397C160.087 53.0397 163.502 44.4534 160.418 42.3883C157.333 40.3232 145.435 41.6275 145.435 41.6275Z" fill="#2F2E41"/>
<path d="M147.528 79.1248C148.013 78.9165 148.546 78.8414 149.071 78.9074C149.573 78.9808 150.084 78.8643 150.503 78.5813C150.503 78.5813 149.621 81.7333 149.732 82.9288C149.842 84.1244 149.401 89.2327 147.088 88.6893C144.774 88.1458 144.113 86.5155 144.994 83.6896C145.876 80.8638 145.655 77.6031 145.655 77.6031C145.655 77.6031 147.263 75.9647 147.561 76.1861C147.859 76.4076 147.528 79.1248 147.528 79.1248Z" fill="#2F2E41"/>
<path d="M154.908 83.1462C154.908 83.1462 153.806 80.755 152.484 82.9288C151.162 85.1025 151.052 85.646 151.052 85.646C151.052 85.646 147.307 89.0153 149.95 89.3414C152.594 89.6674 154.688 89.2327 154.688 88.6892C154.688 88.1458 156.01 88.2545 156.12 87.8197C156.23 87.385 155.899 83.3636 155.899 83.3636L154.908 83.1462Z" fill="#2F2E41"/>
<path d="M157.388 15.9228C157.388 15.9228 152.761 16.7923 152.21 16.6836C152.086 16.662 151.96 16.6489 151.834 16.6443C150.757 16.596 149.689 16.8574 148.759 17.3967C147.225 18.2758 144.939 19.8405 144.939 21.3572C144.939 23.6396 147.913 27.5524 147.913 27.5524C147.913 27.5524 145.159 36.8995 145.379 37.7691C145.6 38.6386 143.727 41.5731 144.939 42.5513C146.151 43.5295 157.718 42.5513 159.811 43.5295C161.905 44.5077 160.913 30.487 160.913 30.487C160.913 30.487 166.532 17.7705 163.667 16.5749C162.74 16.188 161.94 15.8922 161.282 15.669C160.649 15.4538 159.978 15.3654 159.309 15.409C158.64 15.4526 157.987 15.6272 157.388 15.9228Z" fill="#0088F0"/>
<path d="M161.684 16.6836L164.212 17.0957C164.212 17.0957 165.32 18.2052 165.32 18.7487C165.32 19.2921 165.099 42.7687 164.769 43.5295C164.438 44.2903 160.803 43.9643 160.803 43.9643L161.464 30.5956L161.684 16.6836Z" fill="#0088F0"/>
<path d="M156.563 4.49473C156.243 4.07084 155.829 3.72538 155.352 3.48515C154.874 3.24492 154.348 3.11637 153.812 3.1095H153.681C151.164 3.1095 149.124 5.35645 149.124 8.12821V8.12822H149.967L150.104 7.10543L150.303 8.12822H155.305L155.724 7.26292L155.619 8.12822H156.604C157.063 10.378 156.403 12.6278 154.624 14.8775H156.3L157.139 13.1469L156.929 14.8775H160.124L160.753 10.8972C160.753 7.91622 158.997 5.38845 156.563 4.49473Z" fill="#2F2E41"/>
<path d="M157.482 4.91391C158.857 4.91391 159.972 3.81389 159.972 2.45696C159.972 1.10002 158.857 0 157.482 0C156.106 0 154.991 1.10002 154.991 2.45696C154.991 3.81389 156.106 4.91391 157.482 4.91391Z" fill="#2F2E41"/>
<path d="M121.861 3.15479H16.9238V69.3931H121.861V3.15479Z" fill="#0088F0"/>
<path d="M118.876 15.1145H71.6299V69.3318H118.876V15.1145Z" fill="#6C63FF"/>
<path d="M116.266 20.1593H87.6113V21.2992H116.266V20.1593Z" fill="white"/>
<path d="M116.266 22.6671H87.6113V23.807H116.266V22.6671Z" fill="white"/>
<path d="M97.3171 25.1748H87.6113V26.3147H97.3171V25.1748Z" fill="white"/>
<path d="M57.4227 44.6743H28.7676V45.8142H57.4227V44.6743Z" fill="white"/>
<path d="M57.4227 47.1821H28.7676V48.3221H57.4227V47.1821Z" fill="white"/>
<path d="M38.4733 49.6899H28.7676V50.8299H38.4733V49.6899Z" fill="white"/>
<path d="M109.552 34.1429H80.8965V35.2829H109.552V34.1429Z" fill="white"/>
<path d="M109.552 36.6506H80.8965V37.7906H109.552V36.6506Z" fill="white"/>
<path d="M109.552 39.104H80.8965V40.2439H109.552V39.104Z" fill="white"/>
<path d="M109.552 41.5573H80.8965V42.6972H109.552V41.5573Z" fill="white"/>
<path d="M109.552 44.0105H80.8965V45.1504H109.552V44.0105Z" fill="white"/>
<path d="M109.552 46.4637H80.8965V47.6037H109.552V46.4637Z" fill="white"/>
<path d="M109.552 48.917H80.8965V50.0569H109.552V48.917Z" fill="white"/>
<path d="M109.552 51.3704H80.8965V52.5103H109.552V51.3704Z" fill="white"/>
<path d="M109.552 53.8236H80.8965V54.9635H109.552V53.8236Z" fill="white"/>
<path d="M109.552 56.2769H80.8965V57.4168H109.552V56.2769Z" fill="white"/>
<path d="M109.552 58.7301H80.8965V59.87H109.552V58.7301Z" fill="white"/>
<path d="M53.5373 26.5487C53.539 28.0845 53.1918 29.6011 52.5211 30.9871C51.8504 32.3731 50.8734 33.5931 49.6618 34.5574C49.2138 34.9165 48.7359 35.2378 48.2333 35.5179C47.9299 35.6879 47.6178 35.8422 47.2983 35.9803C46.2391 36.4415 45.1089 36.7238 43.9549 36.8157C43.6715 36.839 43.3851 36.8504 43.0958 36.85C42.5235 36.8506 41.952 36.8043 41.3875 36.7114C41.1885 36.6807 40.9921 36.6427 40.7981 36.5985C40.4591 36.5241 40.1242 36.4324 39.7948 36.3238C38.4403 35.8781 37.1931 35.1625 36.1307 34.2213C35.857 33.982 35.5975 33.7272 35.3536 33.4584C34.2167 32.2183 33.403 30.7238 32.9826 29.104C32.5621 27.4842 32.5478 25.7878 32.9406 24.1613C33.3335 22.5348 34.1218 21.0271 35.2375 19.7684C36.3532 18.5097 37.7626 17.538 39.3442 16.937C40.9258 16.336 42.6318 16.1239 44.3151 16.319C45.9983 16.5141 47.6081 17.1106 49.0054 18.0568C50.4027 19.0031 51.5455 20.2707 52.335 21.7502C53.1246 23.2298 53.5373 24.8767 53.5373 26.5487Z" fill="#172755"/>
<path d="M121.798 32.1647C117.182 32.1647 112.754 33.974 109.49 37.1945C106.226 40.415 104.392 44.783 104.392 49.3376V49.3376C104.392 50.6714 103.855 51.9506 102.899 52.8938C101.943 53.8369 100.646 54.3668 99.2942 54.3668H90.8395C88.8475 54.3668 86.8751 54.7539 85.0347 55.5059C83.1944 56.258 81.5222 57.3603 80.1137 58.7499C78.7051 60.1395 77.5878 61.7892 76.8255 63.6049C76.0632 65.4205 75.6709 67.3665 75.6709 69.3317V69.3317H121.798V32.1647H121.798Z" fill="#EF2A82"/>
<path d="M70.4499 3.15479H68.2119V69.3931H70.4499V3.15479Z" fill="#2F2E41"/>
<path d="M13.2066 82.7483C13.2277 84.8799 11.9505 85.6365 10.3662 85.6517C10.3294 85.6521 10.2927 85.652 10.2563 85.6516C10.1828 85.6507 10.1101 85.6481 10.0382 85.6438C8.60726 85.5576 7.48847 84.7859 7.46887 82.8035C7.44858 80.7519 10.0807 78.1373 10.2781 77.944L10.2785 77.9438C10.286 77.9364 10.2898 77.9327 10.2898 77.9327C10.2898 77.9327 13.1855 80.6168 13.2066 82.7483Z" fill="#D0CDE1"/>
<path d="M10.3212 86.0707C16.0214 86.0707 20.6423 85.7489 20.6423 85.3519C20.6423 84.955 16.0214 84.6332 10.3212 84.6332C4.62095 84.6332 0 84.955 0 85.3519C0 85.7489 4.62095 86.0707 10.3212 86.0707Z" fill="#D0CDE1"/>
</g>
<defs>
<clipPath id="clip0">
<rect width="186" height="90" fill="white"/>
</clipPath>
</defs>
</svg>
