<svg width="151" height="90" viewBox="0 0 151 90" fill="none" xmlns="http://www.w3.org/2000/svg">
<g clip-path="url(#clip0)">
<path d="M10.4384 84.4499L19.344 71.7703L10.4339 85.8292L10.4287 87.2718C9.79362 87.2665 9.16495 87.246 8.5427 87.2104C8.53987 86.8828 9.29681 68.8599 9.26463 68.5338C9.30856 68.5215 9.33321 66.8292 9.35064 66.7551L0.046875 52.8991L9.36063 65.4437L9.3884 65.8146L9.94093 51.8119L1.94336 37.4726L10.0042 49.3515C10.0072 49.161 10.3857 20.4103 10.3894 20.2329C10.3917 20.3271 10.5655 43.1128 10.5667 43.2088L18.2155 34.0373L10.5594 45.1796L10.5203 57.7119L17.6182 45.593C8.76008 63.2665 10.7204 57.0819 10.4942 66.5229L20.8044 49.6482L10.4854 68.954L10.4384 84.4499Z" fill="#D0CDE1"/>
<path d="M146.68 86.1713L150.391 80.8874L146.678 86.7461L146.676 87.3473C146.411 87.3451 146.149 87.3365 145.89 87.3217C145.889 87.1852 146.204 79.6746 146.191 79.5387C146.209 79.5335 146.219 78.8284 146.227 78.7975L142.35 73.0233L146.231 78.251L146.242 78.4055L146.473 72.5703L143.14 66.5947L146.499 71.545C146.5 71.4656 146.658 59.4844 146.66 59.4105C146.661 59.4498 146.733 68.9451 146.733 68.9851L149.921 65.1631L146.73 69.8064L146.714 75.0289L149.672 69.9787C145.981 77.3437 146.798 74.7664 146.703 78.7007L151 71.6686L146.7 79.7138L146.68 86.1713Z" fill="#D0CDE1"/>
<path d="M75.2532 90C116.814 90 150.506 88.692 150.506 87.0784C150.506 85.4648 116.814 84.1567 75.2532 84.1567C33.692 84.1567 0 85.4648 0 87.0784C0 88.692 33.692 90 75.2532 90Z" fill="#D0CDE1"/>
<path d="M111.756 34.5073H25.833V85.27H111.756V34.5073Z" fill="#3F3D56"/>
<path d="M47.0976 34.5073C47.0098 39.849 44.8069 44.9425 40.964 48.6895C37.121 52.4365 31.9459 54.5367 26.5547 54.5372C26.3132 54.5372 26.0731 54.533 25.833 54.5247V34.5073H47.0976Z" fill="#0088F0"/>
<path d="M72.9983 85.2699H64.8262C65.1337 84.4413 65.6903 83.726 66.421 83.2208C67.1517 82.7156 68.0212 82.4447 68.9122 82.4447C69.8032 82.4447 70.6727 82.7156 71.4034 83.2208C72.1341 83.726 72.6908 84.4413 72.9983 85.2699Z" fill="#0088F0"/>
<path d="M111.756 59.0128V76.1113C109.541 76.004 107.452 75.0565 105.923 73.4649C104.393 71.8734 103.54 69.7598 103.54 67.5621C103.54 65.3643 104.393 63.2507 105.923 61.6592C107.452 60.0677 109.541 59.1201 111.756 59.0128Z" fill="#0088F0"/>
<path d="M95.9716 52.9531H41.7669C40.3688 52.9531 39.2354 54.0763 39.2354 55.4617V55.4617C39.2354 56.8472 40.3688 57.9703 41.7669 57.9703H95.9716C97.3697 57.9703 98.5031 56.8472 98.5031 55.4617C98.5031 54.0763 97.3697 52.9531 95.9716 52.9531Z" fill="white"/>
<path d="M95.9716 62.84H41.7669C40.3688 62.84 39.2354 63.9631 39.2354 65.3486V65.3486C39.2354 66.734 40.3688 67.8572 41.7669 67.8572H95.9716C97.3697 67.8572 98.5031 66.734 98.5031 65.3486C98.5031 63.9631 97.3697 62.84 95.9716 62.84Z" fill="white"/>
<path d="M95.9716 72.7268H80.2552C78.857 72.7268 77.7236 73.8499 77.7236 75.2354C77.7236 76.6209 78.857 77.744 80.2552 77.744H95.9716C97.3697 77.744 98.5031 76.6209 98.5031 75.2354C98.5031 73.8499 97.3697 72.7268 95.9716 72.7268Z" fill="#EF2A82"/>
<path d="M125.382 15.5986C125.382 15.5986 127.745 16.5091 127.876 19.5008C128.007 22.4925 127.22 30.8171 127.22 30.8171C127.22 30.8171 130.108 34.9794 127.876 36.1501C125.645 37.3207 125.382 31.4675 125.382 31.4675L122.757 19.1106C122.757 19.1106 124.332 15.4685 125.382 15.5986Z" fill="#A0616A"/>
<path d="M101.23 25.224C101.23 25.224 95.5855 28.8661 95.3229 26.0045C95.0604 23.1429 97.0293 11.9567 97.0293 11.9567C97.0293 11.9567 97.2919 7.14397 100.048 8.31463C102.805 9.48529 99.2608 13.5175 99.2608 13.5175L99.6546 22.6226L102.28 22.4925L101.23 25.224Z" fill="#A0616A"/>
<path d="M110.287 28.6059C110.287 28.6059 92.9602 22.2324 93.879 29.6465C94.7979 37.0606 99.2608 46.4259 99.2608 46.4259L100.836 48.8972H104.117L102.017 35.4998C102.017 35.4998 109.499 39.6621 111.731 39.0117C111.731 39.0117 114.618 58.1324 115.669 59.5632C116.719 60.994 118.556 78.2936 118.556 78.2936L120.263 80.3748H123.544V51.1085C123.544 51.1085 129.189 32.8983 124.857 31.9878C120.525 31.0773 110.287 28.6059 110.287 28.6059Z" fill="#2F2E41"/>
<path d="M100.443 47.2062C100.443 47.2062 99.655 45.7754 98.3423 47.2062C97.0297 48.637 93.8794 50.328 93.8794 50.328C93.8794 50.328 87.0538 51.8888 92.5668 53.1896C98.0798 54.4903 98.7361 53.1896 98.7361 53.1896C98.7361 53.1896 99.655 53.4497 100.443 53.7098C101.23 53.97 106.349 53.0595 106.349 52.279C106.349 51.4986 104.611 46.8345 103.905 47.5407C103.199 48.2468 100.443 47.2062 100.443 47.2062Z" fill="#2F2E41"/>
<path d="M120.516 79.0872C120.516 79.0872 118.58 77.5078 118.125 77.959C117.669 78.4103 115.279 81.4563 115.279 81.4563C115.279 81.4563 108.903 86.3073 114.709 87.097C120.516 87.8867 120.174 85.7432 120.174 85.7432H121.996C122.223 85.7432 125.297 84.3895 125.183 83.8254C125.069 83.2613 123.703 78.6617 123.248 78.9872C122.792 79.3128 120.516 79.0872 120.516 79.0872Z" fill="#2F2E41"/>
<path d="M102.937 10.656C105.401 10.656 107.399 8.67596 107.399 6.2335C107.399 3.79104 105.401 1.81104 102.937 1.81104C100.472 1.81104 98.4736 3.79104 98.4736 6.2335C98.4736 8.67596 100.472 10.656 102.937 10.656Z" fill="#A0616A"/>
<path d="M106.087 5.71313C106.087 5.71313 109.499 8.57473 111.862 8.57473C114.225 8.57473 108.449 13.9077 108.449 13.9077L103.33 9.35517L106.087 5.71313Z" fill="#A0616A"/>
<path d="M107.4 13.9077L107.297 12.883C107.297 12.883 109.894 8.31463 110.681 7.92441C111.469 7.53419 111.994 7.53419 111.994 7.53419C111.994 7.53419 114.619 4.80267 117.507 6.23347C120.394 7.66426 127.22 16.7693 127.22 16.7693C127.22 16.7693 122.363 17.1596 123.02 20.9317C123.02 20.9317 127.876 33.2885 126.564 33.4186C125.251 33.5487 121.313 32.6382 117.244 34.4592C113.175 36.2802 111.337 35.1095 111.337 35.1095L109.237 28.3458C109.237 28.3458 105.299 26.1345 105.431 24.1835L99.7207 26.7199L100.246 21.9072L103.724 17.94C103.724 17.94 103.068 17.4197 107.4 13.9077Z" fill="#0088F0"/>
<path d="M98.8318 6.71158C98.6544 6.90692 98.4321 7.05695 98.1837 7.14895C97.9295 7.21999 97.6092 7.13287 97.5079 6.89117L97.6967 6.64779L97.1309 6.29943L97.3774 6.01282L96.9218 5.5225L97.2814 5.23975L96.5967 4.75447C97.4841 3.31944 98.4439 1.86644 99.8451 0.915157C101.246 -0.036128 103.204 -0.374153 104.639 0.525634C105.385 0.992792 105.912 1.73425 106.334 2.50145C107.183 4.04438 107.931 5.54839 108.041 7.30234C107.508 6.78776 106.73 6.49777 106.196 5.98319C105.96 5.7349 105.693 5.51789 105.4 5.33756C104.843 5.02588 104.175 4.99831 103.551 4.85771C103.026 4.73949 102.685 4.50498 102.288 4.16973C101.815 3.77092 101.796 3.92512 101.319 4.37414C100.49 5.15384 99.6614 5.93299 98.8318 6.71158Z" fill="#2F2E41"/>
</g>
<defs>
<clipPath id="clip0">
<rect width="151" height="90" fill="white"/>
</clipPath>
</defs>
</svg>
