<svg width="24" height="24" viewBox="0 0 24 24" fill="none" xmlns="http://www.w3.org/2000/svg">
<path d="M20 0H4C2.93913 0 1.92172 0.421427 1.17157 1.17157C0.421427 1.92172 0 2.93913 0 4V20C0 21.0609 0.421427 22.0783 1.17157 22.8284C1.92172 23.5786 2.93913 24 4 24H20C21.0609 24 22.0783 23.5786 22.8284 22.8284C23.5786 22.0783 24 21.0609 24 20V4C24 2.93913 23.5786 1.92172 22.8284 1.17157C22.0783 0.421427 21.0609 0 20 0ZM21.3333 20C21.3333 20.3536 21.1929 20.6928 20.9428 20.9428C20.6928 21.1929 20.3536 21.3333 20 21.3333H4C3.64638 21.3333 3.30724 21.1929 3.05719 20.9428C2.80714 20.6928 2.66667 20.3536 2.66667 20V4C2.66667 3.64638 2.80714 3.30724 3.05719 3.05719C3.30724 2.80714 3.64638 2.66667 4 2.66667H20C20.3536 2.66667 20.6928 2.80714 20.9428 3.05719C21.1929 3.30724 21.3333 3.64638 21.3333 4V20Z" fill="white"/>
<path d="M15.6133 8.38671C15.4893 8.26174 15.3418 8.16254 15.1794 8.09485C15.0169 8.02716 14.8426 7.99231 14.6666 7.99231C14.4906 7.99231 14.3163 8.02716 14.1538 8.09485C13.9913 8.16254 13.8439 8.26174 13.7199 8.38671L11.9999 10.12L10.2799 8.38671C10.0288 8.13564 9.68832 7.99459 9.33325 7.99459C8.97818 7.99459 8.63766 8.13564 8.38659 8.38671C8.13551 8.63778 7.99446 8.97831 7.99446 9.33337C7.99446 9.68844 8.13551 10.029 8.38659 10.28L10.1199 12L8.38659 13.72C8.26161 13.844 8.16242 13.9915 8.09473 14.1539C8.02704 14.3164 7.99219 14.4907 7.99219 14.6667C7.99219 14.8427 8.02704 15.017 8.09473 15.1795C8.16242 15.342 8.26161 15.4894 8.38659 15.6134C8.51054 15.7383 8.658 15.8375 8.82048 15.9052C8.98296 15.9729 9.15724 16.0078 9.33325 16.0078C9.50927 16.0078 9.68354 15.9729 9.84602 15.9052C10.0085 15.8375 10.156 15.7383 10.2799 15.6134L11.9999 13.88L13.7199 15.6134C13.8439 15.7383 13.9913 15.8375 14.1538 15.9052C14.3163 15.9729 14.4906 16.0078 14.6666 16.0078C14.8426 16.0078 15.0169 15.9729 15.1794 15.9052C15.3418 15.8375 15.4893 15.7383 15.6133 15.6134C15.7382 15.4894 15.8374 15.342 15.9051 15.1795C15.9728 15.017 16.0076 14.8427 16.0076 14.6667C16.0076 14.4907 15.9728 14.3164 15.9051 14.1539C15.8374 13.9915 15.7382 13.844 15.6133 13.72L13.8799 12L15.6133 10.28C15.7382 10.1561 15.8374 10.0086 15.9051 9.84614C15.9728 9.68366 16.0076 9.50939 16.0076 9.33337C16.0076 9.15736 15.9728 8.98308 15.9051 8.8206C15.8374 8.65813 15.7382 8.51066 15.6133 8.38671Z" fill="white"/>
</svg>
