<svg width="18" height="9" viewBox="0 0 18 9" fill="none" xmlns="http://www.w3.org/2000/svg">
<path d="M0.00231934 1.27717C0.00173378 0.979279 0.106129 0.69059 0.29738 0.461216C0.405075 0.332119 0.537342 0.225406 0.6866 0.147187C0.835859 0.0689677 0.999176 0.0207803 1.1672 0.00538454C1.33523 -0.0100113 1.50466 0.00768725 1.66579 0.057466C1.82693 0.107245 1.97659 0.188125 2.10623 0.295476L8.98241 6.00713L15.8714 0.499465C16.0026 0.393562 16.1536 0.314476 16.3157 0.266753C16.4778 0.219031 16.6477 0.203612 16.8158 0.221384C16.9839 0.239155 17.1468 0.289765 17.2952 0.370307C17.4435 0.450849 17.5744 0.559734 17.6803 0.690703C17.797 0.822614 17.8851 0.977091 17.939 1.14444C17.9929 1.31179 18.0114 1.4884 17.9933 1.66318C17.9752 1.83796 17.921 2.00715 17.834 2.16012C17.747 2.31309 17.6292 2.44653 17.4878 2.55209L9.79061 8.70997C9.56107 8.89749 9.27314 9 8.97599 9C8.67885 9 8.39092 8.89749 8.16137 8.70997L0.464153 2.33535C0.308905 2.20746 0.18618 2.04499 0.105938 1.86113C0.0256958 1.67728 -0.00980377 1.47721 0.00231934 1.27717Z" fill="white"/>
</svg>
