<svg width="38" height="38" viewBox="0 0 38 38" fill="none" xmlns="http://www.w3.org/2000/svg">
<path d="M18.9949 9.25116C13.6001 9.25116 9.24624 13.6051 9.24624 19C9.24624 24.3949 13.6001 28.7488 18.9949 28.7488C24.3897 28.7488 28.7435 24.3949 28.7435 19C28.7435 13.6051 24.3897 9.25116 18.9949 9.25116ZM18.9949 25.336C15.5061 25.336 12.659 22.4889 12.659 19C12.659 15.5111 15.5061 12.664 18.9949 12.664C22.4837 12.664 25.3308 15.5111 25.3308 19C25.3308 22.4889 22.4837 25.336 18.9949 25.336ZM29.1428 6.57986C27.8832 6.57986 26.8661 7.59705 26.8661 8.85665C26.8661 10.1162 27.8832 11.1334 29.1428 11.1334C30.4024 11.1334 31.4196 10.121 31.4196 8.85665C31.4199 8.55755 31.3613 8.26132 31.247 7.98491C31.1327 7.70851 30.965 7.45737 30.7535 7.24588C30.5421 7.03438 30.2909 6.86669 30.0145 6.7524C29.7381 6.63812 29.4419 6.57948 29.1428 6.57986ZM37.9979 19C37.9979 16.3762 38.0216 13.7762 37.8743 11.1572C37.727 8.11515 37.033 5.41532 34.8085 3.19082C32.5793 0.961562 29.8843 0.272347 26.8423 0.124997C24.2186 -0.0223523 21.6186 0.00141381 18.9996 0.00141381C16.3759 0.00141381 13.776 -0.0223523 11.157 0.124997C8.115 0.272347 5.41522 0.966315 3.19076 3.19082C0.961545 5.42007 0.272342 8.11515 0.124995 11.1572C-0.0223519 13.781 0.00141379 16.381 0.00141379 19C0.00141379 21.619 -0.0223519 24.2238 0.124995 26.8428C0.272342 29.8849 0.966298 32.5847 3.19076 34.8092C5.41997 37.0384 8.115 37.7277 11.157 37.875C13.7807 38.0224 16.3807 37.9986 18.9996 37.9986C21.6234 37.9986 24.2233 38.0224 26.8423 37.875C29.8843 37.7277 32.5841 37.0337 34.8085 34.8092C37.0378 32.5799 37.727 29.8849 37.8743 26.8428C38.0264 24.2238 37.9979 21.6238 37.9979 19ZM33.8151 30.2081C33.4682 31.0732 33.0499 31.7196 32.3797 32.385C31.7095 33.0552 31.0678 33.4735 30.2028 33.8205C27.7026 34.8139 21.766 34.5905 18.9949 34.5905C16.2238 34.5905 10.2824 34.8139 7.78228 33.8253C6.91721 33.4783 6.27078 33.06 5.60535 32.3898C4.93516 31.7196 4.51688 31.0779 4.1699 30.2128C3.18125 27.7079 3.40465 21.7711 3.40465 19C3.40465 16.2289 3.18125 10.2874 4.1699 7.78717C4.51688 6.92209 4.93516 6.27565 5.60535 5.6102C6.27554 4.94475 6.91721 4.52172 7.78228 4.17473C10.2824 3.18607 16.2238 3.40947 18.9949 3.40947C21.766 3.40947 27.7074 3.18607 30.2075 4.17473C31.0726 4.52172 31.719 4.94 32.3844 5.6102C33.0546 6.28041 33.4729 6.92209 33.8199 7.78717C34.8085 10.2874 34.5851 16.2289 34.5851 19C34.5851 21.7711 34.8085 27.7079 33.8151 30.2081Z" fill="#172755"/>
</svg>
