<svg width="38" height="38" viewBox="0 0 38 38" fill="none" xmlns="http://www.w3.org/2000/svg">
<path d="M7.05073 0C5.183 0.00727813 3.39384 0.752458 2.07315 2.07315C0.752458 3.39384 0.00727813 5.183 0 7.05073V30.9493C0.00727813 32.817 0.752458 34.6062 2.07315 35.9268C3.39384 37.2475 5.183 37.9927 7.05073 38H30.9493C32.817 37.9927 34.6062 37.2475 35.9268 35.9268C37.2475 34.6062 37.9927 32.817 38 30.9493V7.05073C37.9927 5.183 37.2475 3.39384 35.9268 2.07315C34.6062 0.752458 32.817 0.00727813 30.9493 0H7.05073ZM7.05073 3.45455H30.9493C32.9529 3.45455 34.5455 5.04709 34.5455 7.05073V30.9493C34.5455 32.9529 32.9529 34.5455 30.9493 34.5455H7.05073C6.57764 34.5484 6.10866 34.4575 5.67101 34.2778C5.23335 34.0981 4.83573 33.8333 4.5012 33.4988C4.16666 33.1643 3.90188 32.7666 3.72221 32.329C3.54255 31.8913 3.45156 31.4224 3.45455 30.9493V7.05073C3.45455 5.04709 5.04709 3.45455 7.05073 3.45455ZM18.5146 12.4882C17.2451 12.4761 16.1655 12.4882 15.5593 12.7853C15.1534 12.9822 14.8442 13.4261 15.0325 13.4468C15.2691 13.4814 15.8011 13.5954 16.0861 13.9805C16.4488 14.4728 16.4367 15.5869 16.4367 15.5869C16.4367 15.5869 16.6388 18.6494 15.9427 19.0345C15.4643 19.2971 14.8096 18.7634 13.3933 16.3279C12.6713 15.0739 12.1255 13.6904 12.1255 13.6904C12.1255 13.6904 12.0218 13.433 11.8353 13.2983C11.6055 13.1307 11.2877 13.0755 11.2877 13.0755L7.90745 13.0962C7.90745 13.0962 7.40136 13.1169 7.22 13.3328C7.05073 13.5349 7.20618 13.9322 7.20618 13.9322C7.20618 13.9322 9.85064 20.1193 12.8457 23.237C15.5921 26.0991 18.7098 25.9091 18.7098 25.9091H20.1262C20.1262 25.9091 20.5511 25.8625 20.767 25.6327C20.9708 25.4168 20.9639 25.0109 20.9639 25.0109C20.9639 25.0109 20.9363 23.1161 21.8137 22.8328C22.6843 22.5616 23.7897 24.6672 24.9712 25.4773C25.8694 26.0905 26.5499 25.9557 26.5499 25.9557L29.7091 25.9091C29.7091 25.9091 31.3552 25.8072 30.5727 24.5048C30.5123 24.4046 30.1202 23.5479 28.2323 21.793C26.2476 19.9586 26.5119 20.2557 28.899 17.0775C30.3499 15.1413 30.9303 13.9598 30.7472 13.4468C30.5745 12.9684 29.507 13.0962 29.507 13.0962L25.9505 13.1169C25.9505 13.1169 25.688 13.0824 25.4928 13.1981C25.3586 13.2978 25.2517 13.4296 25.1819 13.5815C25.1819 13.5815 24.6154 15.0791 23.8657 16.3555C22.287 19.0397 21.6462 19.1883 21.3905 19.0207C20.7895 18.6286 20.938 17.4541 20.938 16.625C20.938 14.0134 21.3353 12.9338 20.1694 12.6523C19.7842 12.5573 19.5009 12.4968 18.5164 12.4882H18.5146Z" fill="#172755"/>
</svg>
