<svg width="11" height="14" viewBox="0 0 11 14" fill="none" xmlns="http://www.w3.org/2000/svg">
<path d="M6.58429 8.00054C7.72506 8.02742 8.83047 7.62151 9.6582 6.87177C10.4859 6.12203 10.9685 5.08964 11 4.0009C10.9685 2.91215 10.4859 1.87976 9.6582 1.13003C8.83047 0.380287 7.72506 -0.025629 6.58429 0.00125515H2.09524C1.95632 0.00125515 1.82308 0.0539289 1.72485 0.147689C1.62662 0.241449 1.57143 0.368614 1.57143 0.50121V7.00063H0.52381C0.384887 7.00063 0.251654 7.0533 0.15342 7.14706C0.055187 7.24082 0 7.36799 0 7.50058C0 7.63318 0.055187 7.76034 0.15342 7.8541C0.251654 7.94786 0.384887 8.00054 0.52381 8.00054H1.57143V9.00045H0.52381C0.384887 9.00045 0.251654 9.05312 0.15342 9.14688C0.055187 9.24064 0 9.36781 0 9.5004C0 9.633 0.055187 9.76017 0.15342 9.85393C0.251654 9.94769 0.384887 10.0004 0.52381 10.0004H1.57143V13.5C1.57143 13.6326 1.62662 13.7598 1.72485 13.8536C1.82308 13.9473 1.95632 14 2.09524 14C2.23416 14 2.36739 13.9473 2.46563 13.8536C2.56386 13.7598 2.61905 13.6326 2.61905 13.5V10.0004H7.33333C7.47226 10.0004 7.60549 9.94769 7.70372 9.85393C7.80196 9.76017 7.85714 9.633 7.85714 9.5004C7.85714 9.36781 7.80196 9.24064 7.70372 9.14688C7.60549 9.05312 7.47226 9.00045 7.33333 9.00045H2.61905V8.00054H6.58429ZM2.61905 1.00117H6.58429C7.44689 0.97549 8.28513 1.27647 8.91611 1.83845C9.54709 2.40042 9.91961 3.17777 9.95238 4.0009C9.92097 4.82447 9.54887 5.6026 8.91758 6.16485C8.28629 6.7271 7.44727 7.02763 6.58429 7.00063H2.61905V1.00117Z" fill="white"/>
</svg>
